<?xml version="1.0" encoding="UTF-8" ?>
<!DOCTYPE svg PUBLIC "-//W3C//DTD SVG 1.1//EN" "http://www.w3.org/Graphics/SVG/1.1/DTD/svg11.dtd">
<svg width="100pt" height="54pt" viewBox="0 0 100 54" version="1.1" xmlns="http://www.w3.org/2000/svg">
<g id="#ffffffff">
</g>
<g id="#030303ff">
<path fill="#030303" opacity="1.00" d=" M 39.66 16.65 C 43.23 12.22 46.59 7.61 50.00 3.04 C 53.40 7.61 56.77 12.21 60.33 16.65 C 64.73 20.27 69.45 23.49 73.94 27.00 C 69.45 30.51 64.74 33.72 60.34 37.34 C 56.77 41.78 53.41 46.39 50.00 50.96 C 46.59 46.38 43.22 41.76 39.64 37.32 C 35.24 33.72 30.54 30.50 26.06 27.00 C 30.55 23.49 35.27 20.27 39.66 16.65 M 44.01 13.61 C 47.88 12.17 52.11 12.17 55.97 13.61 C 53.93 11.05 52.02 8.39 50.00 5.81 C 48.07 8.46 46.07 11.05 44.01 13.61 M 46.38 14.68 C 42.01 15.93 38.39 19.61 37.45 24.11 C 35.55 31.14 40.95 38.93 48.19 39.70 C 56.47 41.25 64.47 33.02 62.71 24.80 C 61.64 17.46 53.42 12.35 46.38 14.68 M 28.81 27.00 C 31.39 29.03 34.06 30.93 36.62 32.98 C 35.15 29.14 35.11 24.86 36.63 21.02 C 34.06 23.06 31.39 24.97 28.81 27.00 M 63.38 21.02 C 64.85 24.87 64.87 29.13 63.38 32.98 C 65.94 30.93 68.61 29.03 71.19 27.00 C 68.61 24.97 65.94 23.07 63.38 21.02 M 44.01 40.38 C 46.07 42.95 48.07 45.55 50.01 48.19 C 52.02 45.60 53.93 42.95 55.98 40.39 C 52.11 41.83 47.88 41.82 44.01 40.38 Z" />
<path fill="#030303" opacity="1.00" d=" M 48.28 25.33 C 50.27 22.79 54.21 26.71 51.67 28.71 C 49.68 31.15 45.86 27.33 48.28 25.33 Z" />
</g>
</svg>
