<?xml version="1.0" encoding="UTF-8" ?>
<!DOCTYPE svg PUBLIC "-//W3C//DTD SVG 1.1//EN" "http://www.w3.org/Graphics/SVG/1.1/DTD/svg11.dtd">
<svg width="100pt" height="54pt" viewBox="0 0 100 54" version="1.1" xmlns="http://www.w3.org/2000/svg">
<g id="#ffffffff">
</g>
<g id="#010101ff">
<path fill="#010101" opacity="1.00" d=" M 33.55 12.57 C 39.21 5.82 49.19 3.29 57.42 6.38 C 67.60 9.80 74.08 21.53 71.35 31.97 C 69.66 40.00 62.94 46.32 55.13 48.40 C 47.62 50.04 39.25 47.80 34.07 42.00 C 26.36 34.27 26.04 20.55 33.55 12.57 M 31.10 20.06 C 29.58 23.68 30.16 27.69 30.22 31.49 C 31.93 37.41 35.92 42.81 41.68 45.28 C 45.23 47.10 49.27 47.07 53.15 46.84 C 62.53 45.51 70.61 36.66 69.90 27.00 C 70.65 16.67 61.10 6.72 50.76 7.22 C 42.30 6.19 33.89 12.17 31.10 20.06 Z" />
<path fill="#010101" opacity="1.00" d=" M 48.90 7.77 C 49.70 7.90 50.50 8.04 51.29 8.20 C 53.61 11.69 56.04 15.13 58.79 18.29 C 61.94 21.00 65.34 23.40 68.80 25.70 C 68.97 26.49 69.13 27.29 69.27 28.10 C 65.49 30.29 62.02 33.01 58.69 35.81 C 55.98 39.08 53.30 42.45 51.18 46.14 C 50.40 46.15 49.61 46.14 48.83 46.13 C 46.64 42.44 44.01 39.01 41.23 35.75 C 37.98 32.96 34.52 30.39 30.87 28.15 C 30.86 27.38 30.87 26.62 30.88 25.85 C 34.54 23.61 37.98 21.01 41.26 18.25 C 44.03 14.94 46.69 11.49 48.90 7.77 M 43.07 18.11 C 37.75 21.94 37.27 30.48 41.99 34.97 C 46.95 40.16 56.45 38.92 59.82 32.57 C 63.47 26.63 60.08 18.38 53.58 16.22 C 49.99 15.19 46.04 15.84 43.07 18.11 Z" />
<path fill="#010101" opacity="1.00" d=" M 49.15 25.10 C 51.37 23.74 53.52 27.83 50.97 28.84 C 48.67 30.44 46.39 26.03 49.15 25.10 Z" />
</g>
</svg>
