<?xml version="1.0" standalone="no"?>
<!DOCTYPE svg PUBLIC "-//W3C//DTD SVG 20010904//EN"
 "http://www.w3.org/TR/2001/REC-SVG-20010904/DTD/svg10.dtd">
<svg version="1.0" xmlns="http://www.w3.org/2000/svg"
 width="100.000000pt" height="54.000000pt" viewBox="0 0 100.000000 54.000000"
 preserveAspectRatio="xMidYMid meet">
<metadata>
Created by potrace 1.10, written by Peter Selinger 2001-2011
</metadata>
<g transform="translate(0.000000,54.000000) scale(0.100000,-0.100000)"
fill="#000000" stroke="none">
<path fill="#000000" stroke="none" d="M405 471 c-49 -22 -99 -77 -115 -126
-7 -21 -10 -64 -8 -96 l4 -59 -38 0 -38 0 0 -60 0 -60 34 0 c39 0 66 21 66 51
0 11 4 17 10 14 6 -3 10 -19 10 -35 0 -31 -4 -29 150 -46 45 -5 164 14 175 28
1 2 16 32 34 68 65 136 23 273 -101 324 -50 21 -134 20 -183 -3z"/>
<path fill="#ffffff" stroke="none" d="M457 423 c-31 -43 -146 -147 -154 -140
-9 10 23 83 49 113 34 39 58 54 103 65 17 4 32 7 33 8 2 1 -12 -20 -31 -46z"/>
<path fill="#ffffff" stroke="none" d="M596 442 c35 -19 82 -79 93 -119 6 -20
9 -38 8 -40 -8 -7 -123 97 -153 138 l-34 47 33 -7 c18 -5 42 -13 53 -19z"/>
<path fill="#ffffff" stroke="none" d="M550 365 c33 -17 60 -61 60 -97 0 -13
-9 -38 -20 -56 -16 -26 -24 -31 -44 -26 -16 4 -25 1 -29 -10 -8 -20 -47 -21
-47 -1 0 9 -9 15 -25 15 -26 0 -55 41 -55 80 0 33 28 78 58 94 35 20 66 20
102 1z"/>
<path fill="#ffffff" stroke="none" d="M359 190 c-36 -6 -43 -1 -53 43 l-7 29
47 -34 46 -33 -33 -5z"/>
<path fill="#ffffff" stroke="none" d="M695 238 c-14 -50 -28 -79 -34 -69 -4
5 -17 14 -29 18 -22 8 -21 10 20 40 52 39 51 39 43 11z"/>
<path fill="#ffffff" stroke="none" d="M282 155 c15 -33 -3 -75 -32 -75 -17 0
-20 6 -20 50 0 44 3 50 20 50 12 0 25 -10 32 -25z"/>
<path fill="#ffffff" stroke="none" d="M418 168 c13 -13 17 -78 4 -78 -4 0
-19 8 -32 17 l-24 17 24 7 c23 6 22 7 -7 8 -26 1 -33 5 -33 21 0 15 7 20 28
20 15 0 33 -5 40 -12z"/>
<path fill="#ffffff" stroke="none" d="M639 161 c8 -14 5 -23 -13 -40 -12 -11
-25 -21 -29 -21 -9 0 -9 65 0 73 12 13 32 7 42 -12z"/>
<path fill="#ffffff" stroke="none" d="M569 88 c1 -5 -3 -8 -9 -8 -5 0 -10 12
-9 28 0 24 1 25 9 7 5 -11 9 -23 9 -27z"/>
<path fill="#ffffff" stroke="none" d="M474 95 c3 -8 1 -15 -4 -15 -6 0 -10 7
-10 15 0 8 2 15 4 15 2 0 6 -7 10 -15z"/>
<path fill="#ffffff" stroke="none" d="M365 90 c3 -5 1 -10 -4 -10 -6 0 -11 5
-11 10 0 6 2 10 4 10 3 0 8 -4 11 -10z"/>
<path fill="#000000" stroke="none" d="M480 284 c-11 -12 -10 -18 3 -32 16
-15 18 -15 34 0 13 14 14 20 3 32 -7 9 -16 16 -20 16 -4 0 -13 -7 -20 -16z"/>
<path fill="#000000" stroke="none" d="M720 155 c0 -19 35 -85 45 -85 6 0 17
15 23 33 7 22 10 26 11 12 1 -12 6 -26 13 -33 15 -15 55 -16 63 -1 11 17 -3
23 -21 9 -13 -12 -17 -11 -24 1 -7 11 -3 15 21 17 25 3 30 7 27 25 -3 25 -41
35 -64 17 -10 -9 -14 -9 -14 -1 0 21 -18 11 -28 -16 l-10 -28 -11 28 c-9 22
-31 39 -31 22z"/>
<path fill="#ffffff" stroke="none" d="M858 132 c2 -7 -5 -12 -17 -12 -14 0
-19 5 -14 15 6 17 25 15 31 -3z"/>
<path fill="#000000" stroke="none" d="M900 114 c0 -53 18 -59 22 -7 3 35 28
61 28 29 0 -9 10 -20 23 -25 27 -11 38 -3 14 10 -21 12 -23 33 -2 25 8 -3 15
-1 15 3 0 5 -22 9 -50 9 l-50 1 0 -45z"/>
<path fill="#000000" stroke="none" d="M955 80 c3 -5 16 -10 28 -9 21 0 21 1
2 9 -28 12 -37 12 -30 0z"/>
</g>
</svg>
