<?xml version="1.0" standalone="no"?>
<!DOCTYPE svg PUBLIC "-//W3C//DTD SVG 20010904//EN"
 "http://www.w3.org/TR/2001/REC-SVG-20010904/DTD/svg10.dtd">
<svg version="1.0" xmlns="http://www.w3.org/2000/svg"
 width="100.000000pt" height="54.000000pt" viewBox="0 0 100.000000 54.000000"
 preserveAspectRatio="xMidYMid meet">
<metadata>
Created by potrace 1.12, written by Peter Selinger 2001-2015
</metadata>
<g transform="translate(0.000000,54.000000) scale(0.100000,-0.100000)"
fill="#000000" stroke="none">
<path d="M449 523 c-15 -2 -51 -19 -80 -36 -61 -36 -113 -111 -124 -178 -28
-166 140 -327 303 -291 130 30 225 157 208 280 -20 145 -163 250 -307 225z
m147 -47 c178 -83 178 -329 0 -412 -181 -84 -372 84 -315 277 26 86 126 159
219 159 26 0 66 -10 96 -24z"/>
<path d="M424 270 c0 -80 1 -115 3 -77 l4 67 69 0 69 0 4 -67 c2 -38 3 -3 3
77 0 80 -1 115 -3 78 l-4 -68 -69 0 -69 0 -4 68 c-2 37 -3 2 -3 -78z"/>
</g>
</svg>
