<?xml version="1.0" standalone="no"?>
<!DOCTYPE svg PUBLIC "-//W3C//DTD SVG 20010904//EN"
 "http://www.w3.org/TR/2001/REC-SVG-20010904/DTD/svg10.dtd">
<svg version="1.0" xmlns="http://www.w3.org/2000/svg"
 width="100.000000pt" height="54.000000pt" viewBox="0 0 100.000000 54.000000"
 preserveAspectRatio="xMidYMid meet">
<metadata>
Created by potrace 1.12, written by Peter Selinger 2001-2015
</metadata>
<g transform="translate(0.000000,54.000000) scale(0.100000,-0.100000)"
fill="#000000" stroke="none">
<path d="M447 529 c-128 -30 -209 -130 -209 -259 -1 -56 4 -76 28 -121 35 -65
96 -113 171 -135 61 -18 102 -14 173 17 204 90 204 389 0 477 -57 25 -115 32
-163 21z m161 -48 c82 -42 126 -117 126 -211 0 -138 -97 -235 -234 -234 -139
1 -234 97 -234 234 0 112 62 195 174 231 37 12 126 1 168 -20z"/>
<path d="M412 439 c-42 -21 -102 -93 -88 -106 3 -3 6 -1 6 5 0 20 64 85 97 98
73 31 157 11 210 -49 31 -35 38 -58 46 -137 3 -27 4 -23 5 14 4 107 -69 187
-176 193 -44 3 -67 -1 -100 -18z"/>
<path d="M488 413 c6 -2 18 -2 25 0 6 3 1 5 -13 5 -14 0 -19 -2 -12 -5z"/>
<path d="M480 378 c0 -4 -11 -8 -25 -8 -14 0 -25 -4 -25 -10 0 -5 14 -10 30
-10 l30 0 0 -90 c0 -88 -1 -90 -24 -90 -13 0 -35 9 -50 21 -34 27 -57 20 -27
-8 36 -34 103 -48 155 -33 25 7 55 22 67 33 30 28 7 35 -27 8 -15 -12 -37 -21
-50 -21 -23 0 -24 2 -24 90 l0 90 30 0 c17 0 30 5 30 10 0 6 -11 10 -25 10
-14 0 -25 4 -25 8 0 4 -9 8 -20 8 -11 0 -20 -4 -20 -8z"/>
<path d="M313 270 c0 -30 2 -43 4 -27 2 15 2 39 0 55 -2 15 -4 2 -4 -28z"/>
<path d="M320 205 c0 -25 53 -85 93 -104 86 -42 194 -15 244 60 14 22 23 42
19 46 -3 3 -6 1 -6 -5 0 -20 -64 -85 -97 -98 -87 -37 -181 -4 -234 81 -11 17
-19 25 -19 20z"/>
</g>
</svg>
