<?xml version="1.0" standalone="no"?>
<!DOCTYPE svg PUBLIC "-//W3C//DTD SVG 20010904//EN"
 "http://www.w3.org/TR/2001/REC-SVG-20010904/DTD/svg10.dtd">
<svg version="1.0" xmlns="http://www.w3.org/2000/svg"
 width="100.000000pt" height="54.000000pt" viewBox="0 0 100.000000 54.000000"
 preserveAspectRatio="xMidYMid meet">
<metadata>
Created by potrace 1.12, written by Peter Selinger 2001-2015
</metadata>
<g transform="translate(0.000000,54.000000) scale(0.100000,-0.100000)"
fill="#000000" stroke="none">
<path d="M490 506 c0 -20 -7 -26 -47 -35 -63 -16 -128 -80 -145 -144 -10 -39
-16 -47 -35 -47 -13 0 -23 -4 -23 -10 0 -5 10 -10 23 -10 19 0 25 -8 35 -47 9
-31 27 -60 56 -89 29 -29 58 -47 89 -56 42 -11 47 -15 47 -40 0 -15 5 -28 10
-28 6 0 10 13 10 29 0 26 5 30 47 40 63 16 128 80 145 144 10 39 16 47 35 47
13 0 23 5 23 10 0 6 -10 10 -23 10 -19 0 -25 8 -35 47 -17 63 -82 128 -145
145 -39 10 -47 16 -47 35 0 13 -4 23 -10 23 -5 0 -10 -11 -10 -24z m83 -60
c39 -17 92 -71 106 -109 6 -16 11 -46 11 -68 0 -134 -151 -230 -268 -170 -128
66 -150 216 -45 312 50 47 133 62 196 35z"/>
<path d="M458 413 c7 -3 16 -2 19 1 4 3 -2 6 -13 5 -11 0 -14 -3 -6 -6z"/>
<path d="M528 413 c7 -3 16 -2 19 1 4 3 -2 6 -13 5 -11 0 -14 -3 -6 -6z"/>
<path d="M389 373 l-24 -28 28 24 c25 23 32 31 24 31 -2 0 -14 -12 -28 -27z"/>
<path d="M600 375 c13 -14 26 -25 28 -25 3 0 -5 11 -18 25 -13 14 -26 25 -28
25 -3 0 5 -11 18 -25z"/>
<path d="M473 353 c-28 -5 -30 -23 -3 -23 18 0 20 -7 20 -70 0 -61 -2 -70 -18
-70 -10 0 -27 7 -38 15 -22 16 -34 19 -34 7 0 -13 68 -42 100 -42 32 0 100 29
100 42 0 12 -12 9 -34 -7 -11 -8 -28 -15 -38 -15 -16 0 -18 9 -18 70 0 63 2
70 20 70 11 0 20 5 20 10 0 6 -6 10 -14 10 -8 0 -20 2 -28 4 -7 2 -23 1 -35
-1z"/>
<path d="M351 304 c0 -11 3 -14 6 -6 3 7 2 16 -1 19 -3 4 -6 -2 -5 -13z"/>
<path d="M641 304 c0 -11 3 -14 6 -6 3 7 2 16 -1 19 -3 4 -6 -2 -5 -13z"/>
<path d="M351 234 c0 -11 3 -14 6 -6 3 7 2 16 -1 19 -3 4 -6 -2 -5 -13z"/>
<path d="M641 234 c0 -11 3 -14 6 -6 3 7 2 16 -1 19 -3 4 -6 -2 -5 -13z"/>
<path d="M390 165 c13 -14 26 -25 28 -25 3 0 -5 11 -18 25 -13 14 -26 25 -28
25 -3 0 5 -11 18 -25z"/>
<path d="M599 163 l-24 -28 28 24 c15 14 27 26 27 28 0 8 -8 1 -31 -24z"/>
<path d="M458 123 c7 -3 16 -2 19 1 4 3 -2 6 -13 5 -11 0 -14 -3 -6 -6z"/>
<path d="M528 123 c7 -3 16 -2 19 1 4 3 -2 6 -13 5 -11 0 -14 -3 -6 -6z"/>
</g>
</svg>
