<?xml version="1.0" standalone="no"?>
<!DOCTYPE svg PUBLIC "-//W3C//DTD SVG 20010904//EN"
 "http://www.w3.org/TR/2001/REC-SVG-20010904/DTD/svg10.dtd">
<svg version="1.0" xmlns="http://www.w3.org/2000/svg"
 width="100.000000pt" height="54.000000pt" viewBox="0 0 100.000000 54.000000"
 preserveAspectRatio="xMidYMid meet">
<metadata>
Created by potrace 1.12, written by Peter Selinger 2001-2015
</metadata>
<g transform="translate(0.000000,54.000000) scale(0.100000,-0.100000)"
fill="#000000" stroke="none">
<path d="M490 512 c0 -25 -5 -29 -47 -40 -63 -17 -128 -82 -145 -145 -11 -42
-15 -47 -40 -47 -15 0 -28 -4 -28 -10 0 -5 13 -10 28 -10 25 0 29 -5 40 -47
17 -63 82 -128 145 -145 42 -11 47 -15 47 -40 0 -15 5 -28 10 -28 6 0 10 13
10 28 0 25 5 29 47 40 63 17 128 82 145 145 11 42 15 47 40 47 15 0 28 5 28
10 0 6 -13 10 -28 10 -25 0 -29 5 -40 47 -17 63 -82 128 -145 145 -42 11 -47
15 -47 40 0 15 -4 28 -10 28 -5 0 -10 -13 -10 -28z m71 -62 c55 -15 116 -86
124 -144 12 -75 -1 -115 -53 -167 -52 -52 -99 -66 -174 -54 -63 11 -133 83
-143 148 -11 71 1 113 47 163 55 59 118 76 199 54z"/>
</g>
</svg>
