<?xml version="1.0" standalone="no"?>
<!DOCTYPE svg PUBLIC "-//W3C//DTD SVG 20010904//EN"
 "http://www.w3.org/TR/2001/REC-SVG-20010904/DTD/svg10.dtd">
<svg version="1.0" xmlns="http://www.w3.org/2000/svg"
 width="100.000000pt" height="54.000000pt" viewBox="0 0 100.000000 54.000000"
 preserveAspectRatio="xMidYMid meet">
<metadata>
Created by potrace 1.12, written by Peter Selinger 2001-2015
</metadata>
<g transform="translate(0.000000,54.000000) scale(0.100000,-0.100000)"
fill="#000000" stroke="none">
<path d="M420 468 c0 -19 2 -20 10 -8 13 19 13 30 0 30 -5 0 -10 -10 -10 -22z"/>
<path d="M446 475 c-8 -23 3 -39 18 -26 7 6 16 8 19 4 4 -3 7 1 7 10 0 9 -4
19 -10 22 -5 3 -10 0 -10 -7 0 -11 -2 -10 -9 0 -7 11 -10 10 -15 -3z"/>
<path d="M500 473 c0 -16 6 -23 19 -23 11 0 28 -3 38 -6 15 -5 15 -4 3 5 -13
9 -13 11 0 11 12 0 13 2 1 9 -11 7 -11 9 0 14 8 3 5 6 -8 6 -12 1 -25 -4 -29
-10 -4 -8 -9 -7 -15 2 -6 10 -9 8 -9 -8z"/>
<path d="M250 250 l0 -220 250 0 250 0 0 220 0 220 -52 -2 -53 -2 48 -3 47 -4
0 -210 0 -209 -240 0 -240 0 0 209 0 210 53 4 52 3 -57 2 -58 2 0 -220z"/>
<path d="M308 395 c2 -14 6 -25 8 -25 2 0 4 11 4 25 0 14 -4 25 -9 25 -4 0 -6
-11 -3 -25z"/>
<path d="M374 411 c-2 -2 -4 -14 -3 -25 1 -18 2 -18 8 4 l7 25 8 -22 c4 -13
15 -23 24 -23 15 0 15 2 2 10 -13 9 -13 10 0 10 12 0 13 2 1 9 -11 7 -11 9 0
14 8 2 1 4 -14 3 -16 0 -31 -3 -33 -5z"/>
<path d="M338 387 c4 -14 7 -16 13 -5 12 19 11 25 -5 25 -8 0 -11 -8 -8 -20z"/>
<path d="M306 324 c-3 -9 -4 -19 -1 -22 3 -3 5 1 5 9 0 11 2 11 10 -1 5 -8 10
-10 10 -5 0 6 -4 16 -9 23 -6 11 -10 10 -15 -4z"/>
<path d="M340 315 c0 -14 5 -25 11 -25 5 0 7 6 3 13 -6 10 -4 10 7 0 21 -21
39 -15 39 12 0 27 -18 33 -39 13 -11 -10 -13 -10 -7 0 4 6 2 12 -3 12 -6 0
-11 -11 -11 -25z"/>
<path d="M304 255 c-7 -17 3 -35 19 -34 9 0 9 2 0 6 -7 2 -13 11 -13 18 0 7 6
16 13 18 9 4 9 6 -1 6 -7 1 -15 -6 -18 -14z"/>
<path d="M380 248 c-5 -15 -9 -17 -9 -7 -1 24 -31 19 -31 -5 0 -17 2 -18 10
-6 5 8 10 10 10 4 0 -16 58 -13 65 4 3 8 2 18 -1 21 -4 3 -9 0 -11 -6 -3 -7
-9 -13 -14 -13 -4 0 -6 7 -3 15 4 8 3 15 0 15 -4 0 -11 -10 -16 -22z"/>
<path d="M440 251 c-7 -14 -7 -22 1 -27 10 -6 28 11 29 28 0 17 -20 17 -30 -1z"/>
<path d="M480 251 c-15 -28 -13 -31 18 -31 21 0 24 2 12 10 -13 9 -13 10 0 10
12 0 13 2 1 9 -11 7 -11 9 0 14 10 4 9 6 -3 6 -10 1 -22 -8 -28 -18z"/>
<path d="M301 168 c-1 -31 25 -40 36 -12 5 13 7 13 14 2 5 -7 9 -8 9 -3 0 6
-4 16 -9 24 -7 11 -10 9 -16 -8 -8 -27 -22 -27 -28 2 -4 19 -4 18 -6 -5z"/>
<path d="M401 168 c0 -22 1 -22 8 -3 l8 20 5 -20 c4 -19 4 -19 10 3 5 17 2 22
-13 22 -13 0 -19 -7 -18 -22z"/>
<path d="M469 167 c0 -21 -1 -21 -9 -2 -9 20 -9 20 -9 0 -1 -19 5 -21 49 -21
28 0 44 3 37 8 -9 6 -8 8 3 8 12 0 13 2 1 9 -11 7 -11 9 0 13 8 3 -5 6 -28 6
-38 1 -43 -2 -44 -21z m41 -2 c0 -8 -4 -15 -10 -15 -5 0 -10 7 -10 15 0 8 5
15 10 15 6 0 10 -7 10 -15z"/>
<path d="M334 105 c-3 -8 -4 -20 -2 -27 3 -7 7 -1 10 15 6 29 1 36 -8 12z"/>
<path d="M406 104 c-25 -24 -19 -34 19 -32 26 1 35 6 35 19 0 9 -7 20 -16 23
-21 8 -20 8 -38 -10z m38 -3 c3 -5 -1 -11 -9 -15 -9 -3 -15 0 -15 9 0 16 16
20 24 6z"/>
<path d="M470 110 c0 -5 5 -10 10 -10 6 0 10 5 10 10 0 6 -4 10 -10 10 -5 0
-10 -4 -10 -10z"/>
<path d="M540 95 c0 -26 24 -35 33 -12 4 10 6 10 6 0 2 -24 17 -13 17 12 0 14
-4 25 -8 25 -4 0 -8 -5 -8 -12 0 -9 -3 -9 -12 0 -19 19 -28 14 -28 -13z m17
-7 c-3 -8 -6 -5 -6 6 -1 11 2 17 5 13 3 -3 4 -12 1 -19z"/>
<path d="M300 90 c0 -11 4 -20 9 -20 5 0 7 9 4 20 -3 11 -7 20 -9 20 -2 0 -4
-9 -4 -20z"/>
<path d="M357 90 c-5 -20 12 -24 25 -5 12 15 9 25 -6 25 -7 0 -16 -9 -19 -20z"/>
<path d="M502 90 c0 -14 2 -19 5 -12 2 6 2 18 0 25 -3 6 -5 1 -5 -13z"/>
<path d="M522 90 c0 -14 2 -19 5 -12 2 6 2 18 0 25 -3 6 -5 1 -5 -13z"/>
</g>
</svg>
