<?xml version="1.0" standalone="no"?>
<!DOCTYPE svg PUBLIC "-//W3C//DTD SVG 20010904//EN"
 "http://www.w3.org/TR/2001/REC-SVG-20010904/DTD/svg10.dtd">
<svg version="1.0" xmlns="http://www.w3.org/2000/svg"
 width="100.000000pt" height="54.000000pt" viewBox="0 0 100.000000 54.000000"
 preserveAspectRatio="xMidYMid meet">
<metadata>
Created by potrace 1.12, written by Peter Selinger 2001-2015
</metadata>
<g transform="translate(0.000000,54.000000) scale(0.100000,-0.100000)"
fill="#000000" stroke="none">
<path d="M337 432 l-59 -59 38 -8 c52 -9 117 -41 144 -71 l23 -24 -22 -24
c-27 -29 -79 -55 -139 -70 l-42 -11 58 -58 59 -59 8 38 c8 48 46 123 74 148
21 19 21 19 42 0 28 -25 66 -100 74 -148 l8 -38 59 59 58 58 -42 11 c-60 15
-112 41 -139 70 l-22 24 22 24 c27 29 79 55 139 70 l42 11 -58 58 -59 59 -8
-38 c-8 -48 -46 -123 -74 -148 -21 -19 -21 -19 -42 0 -27 24 -59 87 -73 142
l-11 42 -58 -58z"/>
</g>
</svg>
