<?xml version="1.0" standalone="no"?>
<!DOCTYPE svg PUBLIC "-//W3C//DTD SVG 20010904//EN"
 "http://www.w3.org/TR/2001/REC-SVG-20010904/DTD/svg10.dtd">
<svg version="1.0" xmlns="http://www.w3.org/2000/svg"
 width="100.000000pt" height="54.000000pt" viewBox="0 0 100.000000 54.000000"
 preserveAspectRatio="xMidYMid meet">
<metadata>
Created by potrace 1.12, written by Peter Selinger 2001-2015
</metadata>
<g transform="translate(0.000000,54.000000) scale(0.100000,-0.100000)"
fill="#000000" stroke="none">
<path d="M445 436 c-27 -36 -77 -86 -112 -111 -35 -26 -63 -50 -63 -55 0 -5
28 -29 63 -55 35 -25 85 -75 112 -111 27 -35 52 -64 55 -64 3 0 28 29 55 64
27 36 77 86 112 111 35 26 63 50 63 55 0 5 -28 29 -63 55 -35 25 -85 75 -112
111 -27 35 -52 64 -55 64 -3 0 -28 -29 -55 -64z m83 11 l22 -32 -25 -3 c-14
-2 -36 -2 -50 0 l-25 3 22 32 c13 18 25 33 28 33 3 0 15 -15 28 -33z m51 -76
c41 -30 58 -87 42 -140 -22 -74 -112 -111 -181 -73 -38 20 -70 72 -70 112 0
40 32 92 70 112 43 23 97 19 139 -11z m-221 -126 l-3 -25 -32 22 c-18 13 -33
25 -33 28 0 3 15 15 33 28 l32 22 3 -25 c2 -14 2 -36 0 -50z m336 40 c20 -15
20 -15 0 -30 -51 -40 -54 -40 -54 15 0 55 3 55 54 15z m-153 -172 c-6 -10 -17
-27 -26 -37 -15 -20 -15 -20 -30 0 -40 51 -40 54 15 54 46 0 50 -2 41 -17z"/>
<path d="M480 270 c0 -13 7 -20 20 -20 13 0 20 7 20 20 0 13 -7 20 -20 20 -13
0 -20 -7 -20 -20z"/>
</g>
</svg>
