<?xml version="1.0" standalone="no"?>
<!DOCTYPE svg PUBLIC "-//W3C//DTD SVG 20010904//EN"
 "http://www.w3.org/TR/2001/REC-SVG-20010904/DTD/svg10.dtd">
<svg version="1.0" xmlns="http://www.w3.org/2000/svg"
 width="100.000000pt" height="54.000000pt" viewBox="0 0 100.000000 54.000000"
 preserveAspectRatio="xMidYMid meet">
<metadata>
Created by potrace 1.12, written by Peter Selinger 2001-2015
</metadata>
<g transform="translate(0.000000,54.000000) scale(0.100000,-0.100000)"
fill="#000000" stroke="none">
<path d="M65 480 c4 -6 15 -8 25 -5 12 4 56 -18 130 -65 61 -40 114 -70 116
-68 9 10 -225 148 -250 148 -16 0 -25 -4 -21 -10z"/>
<path d="M90 466 c0 -2 41 -35 91 -72 l91 -68 -52 -23 c-38 -17 -51 -27 -48
-40 5 -29 73 -46 158 -40 l75 6 119 -90 c108 -81 156 -105 156 -80 0 5 -41 45
-91 88 l-90 78 175 3 176 2 0 30 c0 34 7 37 36 15 10 -8 28 -15 38 -15 30 0
-33 62 -116 116 -61 41 -118 59 -103 33 4 -6 13 -8 20 -5 14 5 151 -80 174
-107 23 -29 2 -19 -57 26 -31 24 -70 52 -87 62 -28 16 -28 16 4 -13 l35 -30
-14 -41 c-7 -23 -17 -44 -21 -46 -4 -3 -94 14 -200 37 -107 22 -211 40 -233
39 -33 -1 -50 7 -132 69 -87 65 -104 76 -104 66z m736 -153 c7 -10 14 -30 14
-45 0 -25 -3 -28 -36 -28 -30 0 -35 3 -29 18 4 9 12 29 17 45 12 32 16 33 34
10z m-256 -37 l155 -34 -119 -1 c-112 -1 -121 0 -152 24 -18 14 -41 25 -51 25
-27 0 -44 -15 -38 -32 5 -11 -3 -17 -26 -22 -47 -9 -89 -7 -89 4 0 6 13 10 29
10 39 0 59 25 42 52 -13 21 -12 21 40 14 30 -3 124 -22 209 -40z m-31 -98 c64
-56 118 -103 120 -105 2 -2 2 -6 -1 -9 -3 -3 -69 42 -147 99 -77 57 -138 107
-134 110 19 19 56 -2 162 -95z"/>
</g>
</svg>
