<?xml version="1.0" standalone="no"?>
<!DOCTYPE svg PUBLIC "-//W3C//DTD SVG 20010904//EN"
 "http://www.w3.org/TR/2001/REC-SVG-20010904/DTD/svg10.dtd">
<svg version="1.0" xmlns="http://www.w3.org/2000/svg"
 width="100.000000pt" height="54.000000pt" viewBox="0 0 100.000000 54.000000"
 preserveAspectRatio="xMidYMid meet">
<metadata>
Created by potrace 1.12, written by Peter Selinger 2001-2015
</metadata>
<g transform="translate(0.000000,54.000000) scale(0.100000,-0.100000)"
fill="#000000" stroke="none">
<path d="M195 393 c-68 -2 -124 -8 -130 -15 -7 -7 7 -9 50 -4 111 11 289 9
293 -3 2 -7 -11 -11 -37 -11 -112 0 -166 -165 -61 -187 41 -8 38 -23 -5 -23
-22 0 -38 6 -44 18 -6 9 -11 12 -11 7 -1 -29 26 -35 154 -33 72 0 116 3 98 5
-40 5 -41 34 -2 43 22 5 25 12 28 58 4 68 11 71 201 79 l146 6 -19 -22 c-37
-41 -10 -21 34 26 25 26 33 38 19 25 -14 -12 -28 -20 -31 -17 -3 3 -95 8 -204
11 -196 5 -233 9 -221 20 7 8 210 6 292 -2 41 -5 57 -3 50 4 -11 11 -405 21
-600 15z m157 -175 c-15 -15 -52 9 -52 33 0 11 12 31 28 46 l27 25 3 -47 c2
-26 -1 -52 -6 -57z m98 42 c0 -36 -2 -40 -26 -40 -22 0 -25 3 -20 23 3 12 6
30 6 40 0 10 8 17 20 17 17 0 20 -7 20 -40z m0 -95 c0 -11 -12 -15 -45 -15
-54 0 -60 17 -7 23 20 2 40 4 45 5 4 1 7 -5 7 -13z"/>
</g>
</svg>
