<?xml version="1.0" standalone="no"?>
<!DOCTYPE svg PUBLIC "-//W3C//DTD SVG 20010904//EN"
 "http://www.w3.org/TR/2001/REC-SVG-20010904/DTD/svg10.dtd">
<svg version="1.0" xmlns="http://www.w3.org/2000/svg"
 width="100.000000pt" height="54.000000pt" viewBox="0 0 100.000000 54.000000"
 preserveAspectRatio="xMidYMid meet">
<metadata>
Created by potrace 1.12, written by Peter Selinger 2001-2015
</metadata>
<g transform="translate(0.000000,54.000000) scale(0.100000,-0.100000)"
fill="#000000" stroke="none">
<path d="M415 451 c-157 -72 -152 -299 7 -366 70 -29 161 -13 217 38 58 53 77
157 42 232 -46 100 -165 143 -266 96z m73 -78 l-3 -88 -87 -3 c-58 -2 -88 1
-88 8 0 21 31 85 53 109 22 24 91 60 115 61 10 0 12 -21 10 -87z m80 72 c49
-21 81 -52 103 -100 30 -65 29 -66 -68 -63 l-88 3 -3 88 c-2 57 1 87 8 87 6 0
27 -7 48 -15z m-58 -175 c0 -5 -4 -10 -10 -10 -5 0 -10 5 -10 10 0 6 5 10 10
10 6 0 10 -4 10 -10z m-22 -102 c2 -67 0 -88 -10 -88 -24 1 -93 37 -115 61
-22 24 -53 88 -53 109 0 7 30 10 88 8 l87 -3 3 -87z m202 82 c0 -21 -31 -85
-53 -109 -22 -24 -91 -60 -114 -61 -10 0 -13 23 -13 83 0 46 3 87 7 90 11 11
173 8 173 -3z"/>
</g>
</svg>
