<?xml version="1.0" standalone="no"?>
<!DOCTYPE svg PUBLIC "-//W3C//DTD SVG 20010904//EN"
 "http://www.w3.org/TR/2001/REC-SVG-20010904/DTD/svg10.dtd">
<svg version="1.0" xmlns="http://www.w3.org/2000/svg"
 width="100.000000pt" height="54.000000pt" viewBox="0 0 100.000000 54.000000"
 preserveAspectRatio="xMidYMid meet">
<metadata>
Created by potrace 1.12, written by Peter Selinger 2001-2015
</metadata>
<g transform="translate(0.000000,54.000000) scale(0.100000,-0.100000)"
fill="#000000" stroke="none">
<path d="M290 270 l0 -210 210 0 210 0 0 210 0 210 -210 0 -210 0 0 -210z
m405 0 l0 -195 -195 0 -195 0 -3 185 c-1 101 0 190 3 197 3 11 46 13 197 11
l193 -3 0 -195z"/>
<path d="M388 380 c57 -60 82 -93 82 -110 0 -17 -25 -50 -82 -110 l-83 -85 85
82 c60 58 93 83 110 83 17 0 50 -25 110 -82 l85 -83 -82 85 c-58 60 -83 93
-83 110 0 17 25 50 83 110 l82 85 -85 -82 c-60 -58 -93 -83 -110 -83 -17 0
-50 25 -110 83 l-85 82 83 -85z m132 -110 c0 -13 -7 -20 -20 -20 -13 0 -20 7
-20 20 0 13 7 20 20 20 13 0 20 -7 20 -20z"/>
</g>
</svg>
