<?xml version="1.0" standalone="no"?>
<!DOCTYPE svg PUBLIC "-//W3C//DTD SVG 20010904//EN"
 "http://www.w3.org/TR/2001/REC-SVG-20010904/DTD/svg10.dtd">
<svg version="1.0" xmlns="http://www.w3.org/2000/svg"
 width="100.000000pt" height="54.000000pt" viewBox="0 0 100.000000 54.000000"
 preserveAspectRatio="xMidYMid meet">
<metadata>
Created by potrace 1.12, written by Peter Selinger 2001-2015
</metadata>
<g transform="translate(0.000000,54.000000) scale(0.100000,-0.100000)"
fill="#000000" stroke="none">
<path d="M435 460 c-4 -6 -9 -8 -13 -6 -4 2 -13 -2 -20 -10 -16 -17 -11 -18
23 -2 14 6 25 15 25 20 0 11 -7 10 -15 -2z"/>
<path d="M576 445 c-9 -26 -7 -32 5 -12 6 10 9 21 6 23 -2 3 -7 -2 -11 -11z"/>
<path d="M470 439 c0 -5 5 -7 10 -4 6 3 10 8 10 11 0 2 -4 4 -10 4 -5 0 -10
-5 -10 -11z"/>
<path d="M492 430 c-7 -12 -8 -20 -2 -20 5 0 10 6 10 13 0 9 2 9 9 -1 6 -11
10 -10 15 4 3 9 4 19 1 22 -3 3 -5 -1 -5 -9 0 -10 -2 -11 -8 -2 -6 9 -11 7
-20 -7z"/>
<path d="M610 430 c8 -5 20 -10 25 -10 6 0 3 5 -5 10 -8 5 -19 10 -25 10 -5 0
-3 -5 5 -10z"/>
<path d="M360 412 c-13 -14 -12 -15 3 -9 9 3 17 2 17 -3 0 -6 -5 -10 -12 -10
-6 0 -9 -2 -6 -5 3 -4 23 5 43 20 39 26 40 34 3 14 -13 -7 -23 -8 -27 -1 -4 6
-12 3 -21 -6z"/>
<path d="M599 412 c12 -9 12 -14 -3 -36 -9 -14 -12 -26 -7 -26 5 0 13 -9 16
-20 3 -11 11 -20 16 -20 5 0 2 11 -7 25 -9 14 -14 28 -11 31 3 4 15 -9 26 -27
23 -37 28 -34 9 6 -6 14 -15 25 -19 25 -5 0 -8 10 -6 21 1 12 -5 24 -13 26
-13 4 -13 3 -1 -5z"/>
<path d="M416 397 c-16 -11 -17 -17 -7 -33 11 -18 12 -18 6 2 -4 15 1 24 17
32 13 6 18 11 12 11 -5 1 -18 -5 -28 -12z"/>
<path d="M516 384 c-9 -24 -7 -31 5 -11 8 13 14 15 29 7 29 -16 38 -11 10 5
-32 18 -37 18 -44 -1z"/>
<path d="M375 356 c-6 -6 -11 -20 -13 -31 -2 -17 0 -16 13 5 15 23 15 23 10 3
-4 -14 -2 -23 5 -23 6 0 8 5 5 10 -3 6 -1 10 4 10 6 0 11 -4 11 -10 0 -5 9 -2
20 7 11 10 20 21 20 26 0 5 -8 1 -17 -8 -16 -16 -18 -16 -33 2 -11 14 -19 17
-25 9z"/>
<path d="M540 360 c8 -5 20 -10 25 -10 6 0 3 5 -5 10 -8 5 -19 10 -25 10 -5 0
-3 -5 5 -10z"/>
<path d="M683 363 c4 -3 5 -9 2 -14 -4 -5 -1 -17 5 -26 9 -16 10 -15 5 5 -6
22 8 31 20 12 4 -6 12 -10 18 -8 25 4 77 -14 70 -25 -4 -6 -1 -8 8 -5 19 7 79
-17 79 -32 0 -15 -60 -39 -79 -32 -9 3 -12 1 -8 -5 7 -11 -45 -29 -70 -25 -6
2 -14 -2 -18 -8 -12 -19 -26 -10 -20 13 5 19 4 20 -5 4 -6 -9 -8 -22 -5 -27 3
-6 1 -10 -6 -10 -7 0 -10 -2 -8 -4 11 -11 249 79 249 94 0 9 -123 62 -180 78
-19 5 -42 12 -50 14 -8 3 -12 3 -7 1z"/>
<path d="M240 341 c-77 -25 -160 -62 -160 -71 0 -9 126 -63 184 -79 27 -7 44
-7 55 0 14 9 13 10 -2 5 -11 -3 -24 -3 -30 1 -7 4 -16 8 -22 8 -5 0 -24 4 -42
8 -24 6 -30 13 -26 25 3 12 2 13 -4 4 -14 -18 -73 4 -73 28 0 24 59 46 73 28
6 -9 7 -8 4 4 -4 12 2 19 26 25 18 4 37 8 42 8 6 0 15 4 22 8 6 4 19 4 30 1
15 -5 15 -4 3 5 -18 13 -14 14 -80 -8z"/>
<path d="M336 335 c-9 -26 -7 -32 5 -12 6 10 9 21 6 23 -2 3 -7 -2 -11 -11z"/>
<path d="M301 316 c-9 -11 -9 -16 0 -22 7 -4 9 -3 5 4 -3 5 0 12 6 15 7 2 10
7 7 11 -3 4 -12 0 -18 -8z"/>
<path d="M457 312 c-22 -24 -21 -65 1 -85 40 -36 102 -9 102 45 0 51 -69 78
-103 40z m81 -4 c7 -7 12 -24 12 -38 0 -14 -5 -31 -12 -38 -15 -15 -61 -15
-76 0 -7 7 -12 24 -12 38 0 14 5 31 12 38 7 7 24 12 38 12 14 0 31 -5 38 -12z"/>
<path d="M484 279 c-10 -17 13 -36 27 -22 12 12 4 33 -11 33 -5 0 -12 -5 -16
-11z"/>
<path d="M700 300 c-9 -6 -10 -10 -3 -10 6 0 15 5 18 10 8 12 4 12 -15 0z"/>
<path d="M140 270 c0 -5 5 -10 10 -10 6 0 10 5 10 10 0 6 -4 10 -10 10 -5 0
-10 -4 -10 -10z"/>
<path d="M320 269 c0 -5 5 -7 10 -4 6 3 10 8 10 11 0 2 -4 4 -10 4 -5 0 -10
-5 -10 -11z"/>
<path d="M296 241 c-3 -5 1 -14 9 -21 10 -9 15 -9 15 -1 0 6 -5 11 -11 11 -5
0 -7 5 -4 10 3 6 4 10 1 10 -3 0 -7 -4 -10 -9z"/>
<path d="M690 246 c0 -2 7 -7 16 -10 8 -3 12 -2 9 4 -6 10 -25 14 -25 6z"/>
<path d="M330 225 c0 -5 5 -17 10 -25 5 -8 10 -10 10 -5 0 6 -5 17 -10 25 -5
8 -10 11 -10 5z"/>
<path d="M362 215 c5 -35 21 -44 38 -22 15 18 17 18 33 2 9 -9 17 -13 17 -8 0
5 -9 16 -20 26 -11 9 -20 12 -20 7 0 -6 -5 -10 -11 -10 -5 0 -7 5 -4 10 3 6 1
10 -5 10 -7 0 -9 -9 -5 -22 5 -21 5 -21 -10 2 -13 21 -15 22 -13 5z"/>
<path d="M605 210 c-3 -11 -11 -20 -16 -20 -5 0 -2 -12 7 -26 15 -22 15 -27 3
-36 -12 -8 -12 -9 1 -5 8 2 14 14 13 26 -2 11 1 21 6 21 4 0 13 11 19 25 19
40 14 43 -9 6 -11 -18 -23 -31 -26 -27 -3 3 2 17 11 31 9 14 12 25 7 25 -5 0
-13 -9 -16 -20z"/>
<path d="M406 173 c-7 -18 17 -44 38 -42 6 0 1 5 -12 11 -15 8 -21 17 -16 30
7 23 -2 24 -10 1z"/>
<path d="M540 180 c-8 -5 -10 -10 -5 -10 6 0 17 5 25 10 8 5 11 10 5 10 -5 0
-17 -5 -25 -10z"/>
<path d="M510 175 c0 -5 4 -16 9 -23 7 -12 13 -11 37 2 16 8 25 15 21 16 -5 0
-17 -5 -27 -10 -15 -8 -21 -6 -29 7 -6 10 -10 14 -11 8z"/>
<path d="M368 153 c6 -2 12 -9 12 -14 0 -4 -8 -5 -17 -2 -15 6 -16 5 -3 -9 9
-9 17 -12 21 -6 4 7 14 6 27 -1 37 -20 36 -12 -2 14 -20 14 -40 25 -44 24 -4
0 -1 -3 6 -6z"/>
<path d="M492 110 c9 -14 14 -16 20 -7 6 9 8 8 8 -2 0 -8 2 -12 5 -9 3 3 2 13
-1 22 -5 14 -9 15 -15 4 -7 -10 -9 -10 -9 0 0 6 -5 12 -10 12 -6 0 -5 -8 2
-20z"/>
<path d="M570 115 c0 -5 5 -17 10 -25 5 -8 10 -10 10 -5 0 6 -5 17 -10 25 -5
8 -10 11 -10 5z"/>
<path d="M610 110 c-8 -5 -10 -10 -5 -10 6 0 17 5 25 10 8 5 11 10 5 10 -5 0
-17 -5 -25 -10z"/>
<path d="M402 96 c7 -8 15 -12 17 -10 2 2 10 -1 18 -7 7 -7 13 -7 13 -2 0 5
-11 15 -25 21 -34 16 -39 15 -23 -2z"/>
<path d="M470 100 c0 -5 5 -10 11 -10 5 0 7 5 4 10 -3 6 -8 10 -11 10 -2 0 -4
-4 -4 -10z"/>
</g>
</svg>
