<?xml version="1.0" standalone="no"?>
<!DOCTYPE svg PUBLIC "-//W3C//DTD SVG 20010904//EN"
 "http://www.w3.org/TR/2001/REC-SVG-20010904/DTD/svg10.dtd">
<svg version="1.0" xmlns="http://www.w3.org/2000/svg"
 width="100.000000pt" height="54.000000pt" viewBox="0 0 100.000000 54.000000"
 preserveAspectRatio="xMidYMid meet">
<metadata>
Created by potrace 1.12, written by Peter Selinger 2001-2015
</metadata>
<g transform="translate(0.000000,54.000000) scale(0.100000,-0.100000)"
fill="#000000" stroke="none">
<path d="M285 477 c-3 -7 -4 -105 -3 -217 l3 -205 215 0 215 0 0 215 0 215
-213 3 c-167 2 -214 0 -217 -11z m204 -14 c0 -5 -42 -91 -94 -193 l-94 -185 0
193 -1 192 95 0 c52 0 95 -3 94 -7z m210 -185 l0 -193 -94 185 c-52 102 -94
188 -94 193 -1 4 42 7 94 7 l95 0 -1 -192z"/>
</g>
</svg>
