<?xml version="1.0" standalone="no"?>
<!DOCTYPE svg PUBLIC "-//W3C//DTD SVG 20010904//EN"
 "http://www.w3.org/TR/2001/REC-SVG-20010904/DTD/svg10.dtd">
<svg version="1.0" xmlns="http://www.w3.org/2000/svg"
 width="100.000000pt" height="54.000000pt" viewBox="0 0 100.000000 54.000000"
 preserveAspectRatio="xMidYMid meet">
<metadata>
Created by potrace 1.12, written by Peter Selinger 2001-2015
</metadata>
<g transform="translate(0.000000,54.000000) scale(0.100000,-0.100000)"
fill="#000000" stroke="none">
<path d="M280 270 l0 -220 220 0 220 0 0 220 0 220 -220 0 -220 0 0 -220z
m210 205 c0 -10 -190 -385 -195 -385 -3 0 -5 88 -5 195 l0 195 100 0 c55 0
100 -2 100 -5z m220 -190 c0 -107 -2 -195 -5 -195 -5 0 -195 375 -195 385 0 3
45 5 100 5 l100 0 0 -195z m-110 -25 l100 -200 -200 0 c-110 0 -200 2 -200 5
0 7 194 395 197 395 2 0 48 -90 103 -200z"/>
</g>
</svg>
