<?xml version="1.0" standalone="no"?>
<!DOCTYPE svg PUBLIC "-//W3C//DTD SVG 20010904//EN"
 "http://www.w3.org/TR/2001/REC-SVG-20010904/DTD/svg10.dtd">
<svg version="1.0" xmlns="http://www.w3.org/2000/svg"
 width="100.000000pt" height="54.000000pt" viewBox="0 0 100.000000 54.000000"
 preserveAspectRatio="xMidYMid meet">
<metadata>
Created by potrace 1.12, written by Peter Selinger 2001-2015
</metadata>
<g transform="translate(0.000000,54.000000) scale(0.100000,-0.100000)"
fill="#000000" stroke="none">
<path d="M387 313 c-4 -3 -7 -17 -7 -30 0 -17 6 -23 21 -23 12 0 19 -5 16 -12
-2 -7 -12 -12 -22 -11 -12 1 -14 -2 -6 -10 16 -16 41 10 41 42 0 36 -25 62
-43 44z m31 -26 c2 -10 -3 -17 -12 -17 -10 0 -16 9 -16 21 0 24 23 21 28 -4z"/>
<path d="M444 306 c-11 -28 1 -81 18 -84 21 -4 33 35 24 73 -7 27 -33 34 -42
11z m34 -40 c-2 -15 -7 -28 -13 -29 -12 -2 -19 38 -10 60 9 25 27 1 23 -31z"/>
<path d="M504 309 c-10 -17 13 -36 27 -22 12 12 4 33 -11 33 -5 0 -12 -5 -16
-11z m26 -9 c0 -5 -4 -10 -10 -10 -5 0 -10 5 -10 10 0 6 5 10 10 10 6 0 10 -4
10 -10z"/>
<path d="M844 291 c5 -8 -28 -11 -123 -11 -81 0 -131 -4 -131 -10 0 -6 50 -10
131 -10 95 0 128 -3 123 -11 -5 -9 1 -10 21 -5 15 4 40 10 56 13 37 7 37 19 0
26 -16 3 -41 9 -56 13 -20 5 -26 4 -21 -5z"/>
<path d="M40 270 c0 -6 57 -10 150 -10 93 0 150 4 150 10 0 6 -57 10 -150 10
-93 0 -150 -4 -150 -10z"/>
</g>
</svg>
