<?xml version="1.0" standalone="no"?>
<!DOCTYPE svg PUBLIC "-//W3C//DTD SVG 20010904//EN"
 "http://www.w3.org/TR/2001/REC-SVG-20010904/DTD/svg10.dtd">
<svg version="1.0" xmlns="http://www.w3.org/2000/svg"
 width="100.000000pt" height="54.000000pt" viewBox="0 0 100.000000 54.000000"
 preserveAspectRatio="xMidYMid meet">
<metadata>
Created by potrace 1.12, written by Peter Selinger 2001-2015
</metadata>
<g transform="translate(0.000000,54.000000) scale(0.100000,-0.100000)"
fill="#000000" stroke="none">
<path d="M50 270 l0 -200 450 0 450 0 0 200 0 200 -450 0 -450 0 0 -200z m890
0 l0 -180 -440 0 -440 0 0 180 0 180 440 0 440 0 0 -180z"/>
<path d="M390 398 c0 -21 2 -38 4 -38 9 0 12 50 5 62 -6 8 -9 -1 -9 -24z"/>
<path d="M546 415 c-3 -8 -1 -25 4 -37 8 -20 9 -18 9 15 1 39 -3 47 -13 22z"/>
<path d="M571 393 c1 -21 3 -30 6 -21 2 9 12 19 21 21 15 4 15 5 0 6 -10 0
-18 5 -18 10 0 5 8 12 18 14 13 4 11 5 -5 6 -20 1 -23 -4 -22 -36z"/>
<path d="M431 402 c0 -13 -5 -20 -11 -17 -6 4 -7 -1 -3 -11 5 -15 7 -15 15 0
5 9 7 24 5 34 -3 12 -5 10 -6 -6z"/>
<path d="M455 399 c-4 -11 -4 -23 -1 -26 3 -4 6 1 6 10 0 10 5 17 10 17 6 0
10 5 10 10 0 18 -19 10 -25 -11z"/>
<path d="M500 388 c0 -36 4 -35 14 5 4 16 2 27 -4 27 -5 0 -10 -14 -10 -32z"/>
<path d="M475 380 c3 -5 8 -10 11 -10 2 0 4 5 4 10 0 6 -5 10 -11 10 -5 0 -7
-4 -4 -10z"/>
<path d="M520 376 c0 -9 5 -16 10 -16 6 0 10 4 10 9 0 6 -4 13 -10 16 -5 3
-10 -1 -10 -9z"/>
<path d="M273 275 c0 -22 2 -30 4 -17 2 12 2 30 0 40 -3 9 -5 -1 -4 -23z"/>
<path d="M331 292 c-1 -14 -5 -21 -12 -16 -6 4 -5 -3 2 -17 l14 -24 3 23 c2
12 1 30 -1 40 -3 12 -5 11 -6 -6z"/>
<path d="M350 275 c0 -32 3 -36 23 -33 17 2 22 10 22 33 0 23 -5 31 -22 33
-20 3 -23 -1 -23 -33z m40 0 c0 -16 -6 -25 -15 -25 -9 0 -15 9 -15 25 0 16 6
25 15 25 9 0 15 -9 15 -25z"/>
<path d="M413 275 c0 -22 2 -30 4 -17 2 12 2 30 0 40 -3 9 -5 -1 -4 -23z"/>
<path d="M442 298 c-7 -7 -12 -19 -11 -27 0 -10 4 -6 10 8 6 15 14 21 25 17 8
-3 12 -2 9 4 -8 13 -18 13 -33 -2z"/>
<path d="M502 281 c-7 -19 -10 -37 -7 -39 3 -3 5 0 5 6 0 7 7 12 15 12 8 0 15
-5 15 -12 0 -6 2 -9 6 -6 3 3 -1 21 -9 39 l-13 34 -12 -34z"/>
<path d="M547 302 c6 -4 13 -21 16 -37 l4 -30 2 32 c0 17 7 34 14 36 6 3 -1 6
-18 6 -16 0 -25 -3 -18 -7z"/>
<path d="M603 275 c0 -22 2 -30 4 -17 2 12 2 30 0 40 -3 9 -5 -1 -4 -23z"/>
<path d="M627 303 c-10 -9 -9 -51 1 -57 5 -3 6 9 4 26 -4 28 -2 30 17 25 11
-3 19 -1 15 4 -6 11 -28 12 -37 2z"/>
<path d="M677 288 c-3 -12 -2 -28 2 -36 6 -11 10 -6 13 17 5 37 -7 52 -15 19z"/>
<path d="M721 292 c-1 -14 -5 -21 -12 -16 -6 4 -5 -3 2 -17 l14 -24 3 23 c2
12 1 30 -1 40 -3 12 -5 11 -6 -6z"/>
<path d="M290 270 c0 -16 2 -30 4 -30 2 0 6 14 8 30 3 17 1 30 -4 30 -4 0 -8
-13 -8 -30z"/>
<path d="M455 250 c-19 -8 -19 -9 3 -9 12 -1 22 4 22 9 0 6 -1 10 -2 9 -2 0
-12 -4 -23 -9z"/>
<path d="M655 250 c-3 -5 -1 -10 4 -10 6 0 11 5 11 10 0 6 -2 10 -4 10 -3 0
-8 -4 -11 -10z"/>
<path d="M280 155 c0 -30 3 -35 23 -34 16 1 18 2 5 6 -10 2 -18 8 -18 13 0 5
8 11 18 13 16 4 16 5 0 6 -10 0 -18 5 -18 10 0 5 8 12 18 14 13 4 11 5 -5 6
-20 1 -23 -4 -23 -34z"/>
<path d="M380 155 c0 -30 3 -35 23 -34 16 1 18 2 5 6 -10 2 -18 8 -18 13 0 5
8 11 18 13 16 4 16 5 0 6 -10 0 -18 5 -18 10 0 5 8 12 18 14 13 4 11 5 -5 6
-20 1 -23 -4 -23 -34z"/>
<path d="M500 181 c0 -5 5 -13 10 -16 6 -3 10 -2 10 4 0 5 -4 13 -10 16 -5 3
-10 2 -10 -4z"/>
<path d="M540 186 c0 -9 30 -14 35 -6 4 6 -3 10 -14 10 -12 0 -21 -2 -21 -4z"/>
<path d="M593 155 c0 -22 2 -30 4 -17 2 12 2 30 0 40 -3 9 -5 -1 -4 -23z"/>
<path d="M622 178 c-14 -14 -16 -44 -4 -52 4 -2 8 8 7 22 0 18 5 27 15 27 10
0 15 -9 15 -27 -1 -14 3 -24 7 -22 12 8 10 38 -4 52 -15 15 -21 15 -36 0z"/>
<path d="M682 154 c0 -28 3 -33 8 -19 7 19 7 19 18 0 6 -11 12 -17 12 -13 0 4
-9 22 -19 39 l-19 31 0 -38z"/>
<path d="M331 153 c-1 -28 2 -33 22 -32 15 1 17 3 5 6 -9 2 -19 16 -21 31 -4
24 -4 24 -6 -5z"/>
<path d="M487 138 c-5 -16 -3 -17 10 -7 12 10 16 10 24 -2 7 -12 9 -11 9 2 0
25 -37 31 -43 7z"/>
</g>
</svg>
