<?xml version="1.0" standalone="no"?>
<!DOCTYPE svg PUBLIC "-//W3C//DTD SVG 20010904//EN"
 "http://www.w3.org/TR/2001/REC-SVG-20010904/DTD/svg10.dtd">
<svg version="1.0" xmlns="http://www.w3.org/2000/svg"
 width="100.000000pt" height="54.000000pt" viewBox="0 0 100.000000 54.000000"
 preserveAspectRatio="xMidYMid meet">
<metadata>
Created by potrace 1.12, written by Peter Selinger 2001-2015
</metadata>
<g transform="translate(0.000000,54.000000) scale(0.100000,-0.100000)"
fill="#000000" stroke="none">
<path d="M353 460 c0 -25 2 -35 4 -22 2 12 2 32 0 45 -2 12 -4 2 -4 -23z"/>
<path d="M240 455 c0 -19 5 -35 10 -35 6 0 10 16 10 35 0 19 -4 35 -10 35 -5
0 -10 -16 -10 -35z"/>
<path d="M175 430 c16 -16 33 -30 39 -30 5 0 -3 14 -19 30 -16 17 -33 30 -39
30 -5 0 3 -13 19 -30z"/>
<path d="M410 435 c-13 -14 -21 -27 -18 -30 2 -3 17 9 33 25 16 17 24 30 19
30 -6 0 -21 -11 -34 -25z"/>
<path d="M138 363 c12 -2 32 -2 45 0 12 2 2 4 -23 4 -25 0 -35 -2 -22 -4z"/>
<path d="M197 253 c-63 -160 -62 -157 -50 -150 5 3 29 56 53 117 24 60 46 110
50 110 4 0 17 -24 30 -52 l22 -53 27 60 27 59 49 -123 c27 -68 51 -119 53
-113 4 14 -94 257 -104 255 -4 -1 -17 -25 -28 -53 -10 -28 -22 -47 -26 -43 -4
4 -15 29 -25 56 -10 26 -21 47 -25 47 -3 0 -27 -53 -53 -117z"/>
<path d="M428 363 c12 -2 32 -2 45 0 12 2 2 4 -23 4 -25 0 -35 -2 -22 -4z"/>
<path d="M545 282 c-15 -21 -15 -24 -2 -13 15 12 17 11 17 -3 0 -9 -8 -16 -19
-16 -11 0 -22 -4 -25 -9 -4 -5 3 -7 14 -4 14 4 20 0 20 -11 0 -9 5 -16 10 -16
6 0 10 23 10 50 0 28 -1 50 -2 50 -2 0 -12 -13 -23 -28z"/>
<path d="M620 301 c0 -5 -3 -17 -7 -27 -4 -11 -3 -15 5 -10 7 4 12 -5 14 -24
3 -30 3 -30 16 -9 8 11 9 18 3 14 -7 -4 -11 7 -11 29 0 20 -4 36 -10 36 -5 0
-10 -4 -10 -9z"/>
<path d="M676 283 c-11 -14 -14 -23 -8 -19 15 9 15 5 2 -28 -5 -14 -6 -26 -2
-26 5 0 15 23 24 50 18 55 13 63 -16 23z"/>
<path d="M730 295 c-11 -13 -11 -20 0 -40 11 -20 11 -27 0 -40 -11 -13 -10
-14 3 -9 25 9 31 43 12 65 -16 17 -16 19 -2 25 9 3 21 3 27 -1 5 -3 10 -1 10
4 0 16 -36 13 -50 -4z"/>
<path d="M788 260 c-9 -28 -13 -50 -10 -50 4 0 14 23 24 50 9 28 13 50 9 50
-4 0 -14 -22 -23 -50z"/>
<path d="M596 235 c-9 -26 -7 -32 5 -12 6 10 9 21 6 23 -2 3 -7 -2 -11 -11z"/>
<path d="M590 161 c-5 -11 -10 -28 -10 -39 0 -24 35 -56 53 -49 16 6 29 57 16
57 -5 0 -9 -11 -9 -25 0 -26 -23 -35 -36 -14 -11 19 -6 71 8 80 9 6 10 9 1 9
-7 0 -17 -9 -23 -19z"/>
<path d="M635 170 c3 -5 8 -10 11 -10 2 0 4 5 4 10 0 6 -5 10 -11 10 -5 0 -7
-4 -4 -10z"/>
<path d="M678 130 c5 -65 17 -65 17 0 0 28 -4 50 -10 50 -6 0 -9 -21 -7 -50z"/>
<path d="M520 164 c0 -3 5 -14 10 -25 7 -11 7 -19 1 -19 -5 0 -11 5 -13 10 -2
6 -8 -3 -15 -20 -6 -16 -7 -30 -2 -30 5 0 9 7 9 15 0 8 7 15 15 15 9 0 18 -7
21 -15 4 -8 10 -15 14 -15 4 0 0 20 -9 45 -9 25 -19 45 -23 45 -5 0 -8 -3 -8
-6z"/>
<path d="M237 123 c-15 -14 -7 -43 12 -43 23 0 34 23 18 39 -13 13 -21 14 -30
4z m23 -23 c0 -5 -4 -10 -10 -10 -5 0 -10 5 -10 10 0 6 5 10 10 10 6 0 10 -4
10 -10z"/>
<path d="M334 115 c-4 -9 -2 -21 4 -27 15 -15 44 -1 40 19 -4 23 -36 29 -44 8z
m36 -9 c0 -11 -19 -15 -25 -6 -3 5 1 10 9 10 9 0 16 -2 16 -4z"/>
</g>
</svg>
