<?xml version="1.0" standalone="no"?>
<!DOCTYPE svg PUBLIC "-//W3C//DTD SVG 20010904//EN"
 "http://www.w3.org/TR/2001/REC-SVG-20010904/DTD/svg10.dtd">
<svg version="1.0" xmlns="http://www.w3.org/2000/svg"
 width="100.000000pt" height="54.000000pt" viewBox="0 0 100.000000 54.000000"
 preserveAspectRatio="xMidYMid meet">
<metadata>
Created by potrace 1.12, written by Peter Selinger 2001-2015
</metadata>
<g transform="translate(0.000000,54.000000) scale(0.100000,-0.100000)"
fill="#000000" stroke="none">
<path d="M227 426 c-9 -92 -33 -180 -74 -264 -19 -41 -32 -76 -29 -79 11 -11
86 162 99 227 l13 65 18 -70 c19 -79 85 -227 97 -220 4 3 -3 24 -16 48 -39 70
-75 193 -82 277 -3 44 -9 80 -13 80 -4 0 -10 -29 -13 -64z"/>
<path d="M506 378 c-16 -27 -17 -31 -3 -19 15 12 16 9 15 -23 -1 -20 2 -39 5
-43 11 -11 12 -1 7 60 l-5 59 -19 -34z"/>
<path d="M584 379 c-1 -20 2 -26 7 -17 6 8 9 -3 9 -30 0 -44 11 -48 30 -12 8
16 8 18 -4 14 -11 -4 -15 4 -18 32 -4 46 -23 56 -24 13z"/>
<path d="M659 378 c-13 -17 -18 -28 -11 -24 15 9 15 -4 2 -38 -5 -14 -6 -26
-1 -26 5 0 14 21 21 48 7 26 17 53 23 60 6 8 6 12 -1 12 -6 0 -21 -14 -33 -32z"/>
<path d="M722 398 c-16 -16 -15 -43 3 -58 20 -17 19 -36 -2 -50 -10 -6 -12
-10 -4 -8 8 2 20 13 28 24 12 18 11 24 -8 48 -16 20 -19 30 -11 38 8 8 16 7
28 -3 15 -12 17 -12 12 1 -6 20 -30 24 -46 8z"/>
<path d="M794 401 c3 -5 -1 -31 -9 -57 -17 -58 -17 -54 -7 -54 4 0 13 19 19
43 7 23 15 50 18 60 5 12 2 17 -10 17 -9 0 -14 -4 -11 -9z"/>
<path d="M571 324 c0 -11 3 -14 6 -6 3 7 2 16 -1 19 -3 4 -6 -2 -5 -13z"/>
<path d="M691 304 c0 -11 3 -14 6 -6 3 7 2 16 -1 19 -3 4 -6 -2 -5 -13z"/>
<path d="M455 300 c-3 -5 -1 -10 4 -10 6 0 11 5 11 10 0 6 -2 10 -4 10 -3 0
-8 -4 -11 -10z"/>
<path d="M820 300 c-13 -8 -12 -10 3 -10 9 0 17 5 17 10 0 12 -1 12 -20 0z"/>
<path d="M570 190 c-41 -41 -12 -116 42 -108 18 2 24 10 26 36 2 18 -1 32 -7
32 -6 0 -11 -13 -11 -30 0 -18 -5 -30 -13 -30 -41 0 -52 78 -15 104 12 9 17
16 10 16 -6 0 -21 -9 -32 -20z"/>
<path d="M485 188 c-15 -42 -35 -101 -35 -104 0 -2 5 -4 10 -4 6 0 9 3 9 8 -4
22 3 32 21 32 18 0 25 -10 21 -32 0 -5 5 -8 13 -8 12 0 11 11 -6 60 -20 62
-25 69 -33 48z m15 -43 c0 -8 -4 -15 -10 -15 -5 0 -10 7 -10 15 0 8 5 15 10
15 6 0 10 -7 10 -15z"/>
<path d="M626 185 c4 -8 8 -15 10 -15 2 0 4 7 4 15 0 8 -4 15 -10 15 -5 0 -7
-7 -4 -15z"/>
<path d="M665 140 l0 -60 33 0 c17 0 32 4 32 9 0 4 -11 6 -25 3 -24 -4 -25 -3
-25 52 0 31 -3 56 -7 56 -5 0 -8 -27 -8 -60z"/>
<path d="M214 95 c-8 -19 3 -35 26 -35 19 0 30 17 23 38 -6 17 -42 15 -49 -3z
m36 -10 c0 -8 -4 -15 -9 -15 -13 0 -22 16 -14 24 11 11 23 6 23 -9z"/>
</g>
</svg>
