<?xml version="1.0" standalone="no"?>
<!DOCTYPE svg PUBLIC "-//W3C//DTD SVG 20010904//EN"
 "http://www.w3.org/TR/2001/REC-SVG-20010904/DTD/svg10.dtd">
<svg version="1.0" xmlns="http://www.w3.org/2000/svg"
 width="100.000000pt" height="54.000000pt" viewBox="0 0 100.000000 54.000000"
 preserveAspectRatio="xMidYMid meet">
<metadata>
Created by potrace 1.12, written by Peter Selinger 2001-2015
</metadata>
<g transform="translate(0.000000,54.000000) scale(0.100000,-0.100000)"
fill="#000000" stroke="none">
<path d="M405 466 c-27 -13 -63 -37 -78 -54 -28 -29 -28 -31 -12 -56 10 -14
20 -26 22 -26 3 0 -2 12 -12 26 -14 22 -15 28 -4 35 21 13 37 11 49 -8 10 -16
10 -15 5 4 -5 18 -1 24 21 29 17 4 29 2 35 -7 7 -11 9 -10 9 4 0 11 8 17 25
17 l25 0 0 -128 c0 -99 -3 -133 -15 -148 -15 -19 -15 -19 -9 1 5 16 4 17 -4 5
-8 -10 -7 -18 1 -28 6 -8 10 -27 9 -43 -2 -19 3 -32 13 -35 23 -9 47 16 41 42
-4 13 -2 25 4 29 5 3 6 13 3 22 -4 10 -2 14 5 9 6 -3 14 -1 18 5 4 8 3 9 -4 5
-7 -4 -12 -1 -12 6 0 10 -2 10 -9 -1 -7 -11 -10 -10 -15 5 -3 11 -4 7 -2 -8 2
-15 -1 -25 -5 -22 -5 3 -9 68 -9 146 l0 141 50 -7 c63 -8 79 -15 76 -29 -1 -7
-1 -9 1 -4 6 10 35 9 52 -2 10 -7 3 -25 -36 -82 -56 -84 -71 -109 -56 -94 6 6
34 45 63 88 l52 79 -29 30 c-39 42 -118 78 -173 78 -27 0 -66 -10 -95 -24z"/>
<path d="M552 390 c0 -14 2 -19 5 -12 2 6 2 18 0 25 -3 6 -5 1 -5 -13z"/>
<path d="M442 370 c0 -14 2 -19 5 -12 2 6 2 18 0 25 -3 6 -5 1 -5 -13z"/>
<path d="M606 355 c-9 -26 -7 -32 5 -12 6 10 9 21 6 23 -2 3 -7 -2 -11 -11z"/>
<path d="M380 355 c0 -5 5 -17 10 -25 5 -8 10 -10 10 -5 0 6 -5 17 -10 25 -5
8 -10 11 -10 5z"/>
<path d="M542 340 c0 -14 2 -19 5 -12 2 6 2 18 0 25 -3 6 -5 1 -5 -13z"/>
<path d="M452 310 c0 -14 2 -19 5 -12 2 6 2 18 0 25 -3 6 -5 1 -5 -13z"/>
<path d="M532 280 c0 -14 2 -19 5 -12 2 6 2 18 0 25 -3 6 -5 1 -5 -13z"/>
<path d="M576 285 c-9 -26 -7 -32 5 -12 6 10 9 21 6 23 -2 3 -7 -2 -11 -11z"/>
<path d="M410 285 c0 -5 5 -17 10 -25 5 -8 10 -10 10 -5 0 6 -5 17 -10 25 -5
8 -10 11 -10 5z"/>
<path d="M462 260 c0 -14 2 -19 5 -12 2 6 2 18 0 25 -3 6 -5 1 -5 -13z"/>
<path d="M395 234 c10 -17 26 -41 37 -55 l20 -24 -17 31 c-10 17 -26 41 -37
55 l-20 24 17 -31z"/>
<path d="M522 230 c0 -14 2 -19 5 -12 2 6 2 18 0 25 -3 6 -5 1 -5 -13z"/>
<path d="M556 235 c-9 -26 -7 -32 5 -12 6 10 9 21 6 23 -2 3 -7 -2 -11 -11z"/>
<path d="M431 235 c0 -5 6 -21 14 -35 8 -14 14 -20 14 -15 0 6 -6 21 -14 35
-8 14 -14 21 -14 15z"/>
<path d="M472 210 c0 -14 2 -19 5 -12 2 6 2 18 0 25 -3 6 -5 1 -5 -13z"/>
</g>
</svg>
