<?xml version="1.0" standalone="no"?>
<!DOCTYPE svg PUBLIC "-//W3C//DTD SVG 20010904//EN"
 "http://www.w3.org/TR/2001/REC-SVG-20010904/DTD/svg10.dtd">
<svg version="1.0" xmlns="http://www.w3.org/2000/svg"
 width="100.000000pt" height="54.000000pt" viewBox="0 0 100.000000 54.000000"
 preserveAspectRatio="xMidYMid meet">
<metadata>
Created by potrace 1.12, written by Peter Selinger 2001-2015
</metadata>
<g transform="translate(0.000000,54.000000) scale(0.100000,-0.100000)"
fill="#000000" stroke="none">
<path d="M334 480 c8 -19 18 -36 23 -37 10 -4 37 46 29 54 -2 2 -7 -5 -11 -16
-6 -20 -25 -30 -25 -13 0 5 -7 17 -15 28 -13 17 -13 15 -1 -16z"/>
<path d="M401 492 c-13 -25 11 -63 29 -46 14 14 9 56 -7 61 -6 2 -16 -4 -22
-15z m29 -17 c0 -14 -4 -25 -10 -25 -5 0 -10 11 -10 25 0 14 5 25 10 25 6 0
10 -11 10 -25z"/>
<path d="M460 475 c0 -19 5 -35 10 -35 6 0 10 7 10 17 0 14 3 14 22 -3 13 -12
18 -13 13 -4 -5 8 -8 25 -6 38 2 18 -2 22 -23 22 -23 0 -26 -4 -26 -35z m40
15 c0 -5 -4 -10 -10 -10 -5 0 -10 5 -10 10 0 6 5 10 10 10 6 0 10 -4 10 -10z"/>
<path d="M528 503 c6 -2 12 -18 12 -34 0 -16 5 -29 10 -29 6 0 10 13 10 29 0
16 6 32 13 34 6 3 -4 5 -23 5 -19 0 -29 -2 -22 -5z"/>
<path d="M581 478 c-6 -17 -9 -34 -6 -36 3 -3 5 0 5 6 0 7 9 12 20 12 11 0 20
-5 20 -12 0 -6 2 -9 5 -6 7 7 -15 68 -25 68 -4 0 -13 -14 -19 -32z m29 2 c0
-5 -4 -10 -10 -10 -5 0 -10 5 -10 10 0 6 5 10 10 10 6 0 10 -4 10 -10z"/>
<path d="M641 491 c-14 -26 12 -62 31 -43 11 11 10 12 -4 7 -15 -6 -18 -2 -18
20 0 20 4 26 16 21 8 -3 12 -2 9 4 -10 15 -23 12 -34 -9z"/>
<path d="M404 383 c3 -10 26 -92 52 -183 25 -91 49 -168 53 -172 6 -7 102 342
101 365 0 4 -48 7 -106 7 -96 0 -105 -2 -100 -17z m194 -5 c-3 -7 -22 -79 -43
-160 -21 -82 -41 -148 -45 -148 -6 0 -91 294 -90 313 0 4 41 7 91 7 69 0 90
-3 87 -12z"/>
</g>
</svg>
