<?xml version="1.0" standalone="no"?>
<!DOCTYPE svg PUBLIC "-//W3C//DTD SVG 20010904//EN"
 "http://www.w3.org/TR/2001/REC-SVG-20010904/DTD/svg10.dtd">
<svg version="1.0" xmlns="http://www.w3.org/2000/svg"
 width="100.000000pt" height="54.000000pt" viewBox="0 0 100.000000 54.000000"
 preserveAspectRatio="xMidYMid meet">
<metadata>
Created by potrace 1.12, written by Peter Selinger 2001-2015
</metadata>
<g transform="translate(0.000000,54.000000) scale(0.100000,-0.100000)"
fill="#000000" stroke="none">
<path d="M480 445 c-6 -8 -9 -23 -5 -35 6 -18 2 -20 -29 -20 -28 0 -36 -4 -36
-18 0 -15 6 -17 35 -14 l35 4 0 -126 c0 -94 -3 -126 -12 -126 -23 1 -98 39
-98 50 0 5 -9 10 -20 10 -38 0 -19 -29 37 -57 79 -38 147 -38 226 0 56 28 75
57 37 57 -11 0 -20 -5 -20 -10 0 -11 -75 -49 -97 -50 -10 0 -13 32 -13 126 l0
126 35 -4 c29 -3 35 -1 35 14 0 14 -8 18 -36 18 -31 0 -35 2 -29 20 6 20 -9
50 -25 50 -4 0 -13 -7 -20 -15z m37 -11 c8 -21 -13 -42 -28 -27 -13 13 -5 43
11 43 6 0 13 -7 17 -16z"/>
</g>
</svg>
