<?xml version="1.0" standalone="no"?>
<!DOCTYPE svg PUBLIC "-//W3C//DTD SVG 20010904//EN"
 "http://www.w3.org/TR/2001/REC-SVG-20010904/DTD/svg10.dtd">
<svg version="1.0" xmlns="http://www.w3.org/2000/svg"
 width="100.000000pt" height="54.000000pt" viewBox="0 0 100.000000 54.000000"
 preserveAspectRatio="xMidYMid meet">
<metadata>
Created by potrace 1.12, written by Peter Selinger 2001-2015
</metadata>
<g transform="translate(0.000000,54.000000) scale(0.100000,-0.100000)"
fill="#000000" stroke="none">
<path d="M67 336 c18 -16 32 -21 39 -15 6 5 15 5 19 1 5 -4 5 -1 1 6 -6 10 2
12 33 11 22 -2 38 -5 35 -8 -3 -3 -11 -6 -17 -6 -7 0 -11 -10 -11 -23 1 -13
-4 -22 -13 -22 -9 0 -11 5 -7 13 5 8 2 7 -9 -2 -10 -8 -15 -16 -12 -19 3 -3
-13 -25 -36 -48 -37 -38 -38 -53 -1 -31 6 5 12 5 12 1 0 -4 9 1 20 11 11 10
17 22 14 26 -3 5 5 13 18 18 13 5 31 18 42 30 10 11 22 18 27 15 4 -2 6 5 4
16 -3 17 1 20 36 20 22 0 38 -4 35 -9 -3 -4 18 -6 48 -4 l53 4 -2 -41 -2 -41
37 36 c25 25 44 34 62 33 15 -1 24 -6 22 -10 -3 -5 -9 -6 -13 -3 -5 2 -16 -4
-26 -15 -10 -11 -15 -20 -10 -20 4 0 2 -7 -5 -15 -7 -8 -17 -12 -24 -8 -6 3
-7 2 -3 -3 17 -18 76 -11 99 13 12 13 18 23 14 23 -5 0 -3 7 4 15 7 8 26 15
43 15 l31 0 -33 -33 c-30 -32 -31 -34 -9 -33 13 1 29 5 36 9 6 5 12 5 12 1 0
-4 9 1 20 11 11 10 17 22 14 26 -3 5 9 9 27 9 30 0 31 -1 16 -18 -15 -16 -13
-17 38 -17 29 0 51 3 49 7 -2 4 -13 5 -24 3 -12 -2 -19 -1 -16 3 7 11 64 14
70 3 6 -10 94 -6 104 4 4 4 -17 5 -45 3 -30 -3 -53 0 -53 5 0 5 -23 7 -50 5
-28 -3 -53 -1 -56 4 -4 5 -25 8 -48 7 -23 -2 -47 1 -54 5 -7 4 -29 6 -50 5
-21 -2 -43 1 -50 5 -7 4 -29 7 -50 5 -20 -1 -45 2 -54 6 -10 4 -38 5 -63 2
-25 -2 -48 0 -51 5 -3 5 -25 8 -48 7 -23 -2 -47 1 -54 5 -7 4 -30 6 -52 5 -21
-2 -42 0 -46 4 -4 4 -20 7 -36 7 l-29 0 28 -24z m38 2 c4 -3 2 -9 -3 -12 -5
-3 -15 1 -21 8 -10 11 -9 14 3 12 9 -1 18 -5 21 -8z m94 -45 c-13 -13 -35 -30
-49 -37 -14 -7 -24 -17 -23 -23 1 -6 -4 -17 -12 -23 -8 -7 -15 -9 -15 -5 0 4
-8 1 -17 -6 -10 -7 -1 5 20 27 20 22 35 43 32 45 -3 3 5 5 18 5 17 -1 22 4 21
21 -1 13 2 20 7 18 4 -3 10 -1 14 5 4 6 11 8 16 4 6 -4 1 -16 -12 -31z m244
14 c4 3 7 4 7 1 0 -2 -11 -14 -23 -27 l-24 -22 3 28 c3 38 2 37 17 24 8 -6 17
-8 20 -4z m97 -22 c-5 -7 -8 -14 -5 -17 9 -9 -26 -32 -51 -34 -19 -1 -22 2
-13 13 6 7 8 13 4 13 -4 0 -2 7 5 15 7 8 16 13 20 10 5 -3 11 -2 14 3 3 5 12
9 20 9 11 0 13 -4 6 -12z m120 -4 c7 -1 -20 -26 -30 -27 -6 -1 -11 -2 -12 -4
-2 -1 -11 -3 -22 -5 -16 -3 -16 -1 4 20 12 13 29 22 38 20 9 -2 19 -4 22 -4z
m85 -10 c-9 -8 -36 -10 -30 -2 2 4 11 8 20 8 8 0 13 -3 10 -6z"/>
<path d="M189 303 c-13 -16 -12 -17 4 -4 9 7 17 15 17 17 0 8 -8 3 -21 -13z"/>
<path d="M413 295 c0 -8 4 -12 9 -9 5 3 6 10 3 15 -9 13 -12 11 -12 -6z"/>
<path d="M516 283 c-4 -5 -12 -8 -18 -8 -6 0 -12 -7 -14 -16 -1 -10 4 -16 12
-15 17 3 27 13 30 31 3 17 1 18 -10 8z m4 -19 c0 -8 -19 -13 -24 -6 -3 5 1 9
9 9 8 0 15 -2 15 -3z"/>
<path d="M607 261 c-10 -14 -10 -14 4 -4 9 7 18 10 21 7 3 -3 8 -1 12 4 9 16
-24 9 -37 -7z"/>
<path d="M260 288 c0 -5 5 -6 10 -3 6 3 10 2 10 -4 0 -5 -6 -12 -12 -14 -9 -4
-8 -6 2 -6 12 -1 12 -3 2 -9 -8 -6 -1 -9 20 -9 18 0 27 2 21 5 -7 2 -13 13
-13 25 1 22 1 22 15 3 8 -11 15 -14 15 -8 0 7 4 11 9 9 8 -2 11 3 11 19 0 4
-7 1 -15 -6 -8 -7 -15 -8 -15 -3 0 5 -13 10 -30 10 -16 0 -30 -4 -30 -9z"/>
<path d="M192 237 l-32 -33 45 1 c24 0 49 5 55 11 9 9 5 11 -12 10 -18 -1 -23
4 -22 22 1 12 1 22 0 22 -1 0 -16 -15 -34 -33z m25 6 c-4 -3 -3 -11 3 -18 6
-8 2 -11 -15 -11 -23 0 -23 1 -8 18 9 10 18 18 21 18 3 0 2 -3 -1 -7z"/>
<path d="M296 221 c3 -3 25 -6 49 -6 25 -1 42 1 39 4 -3 3 -25 6 -49 6 -25 1
-42 -1 -39 -4z"/>
</g>
</svg>
