<?xml version="1.0" standalone="no"?>
<!DOCTYPE svg PUBLIC "-//W3C//DTD SVG 20010904//EN"
 "http://www.w3.org/TR/2001/REC-SVG-20010904/DTD/svg10.dtd">
<svg version="1.0" xmlns="http://www.w3.org/2000/svg"
 width="100.000000pt" height="54.000000pt" viewBox="0 0 100.000000 54.000000"
 preserveAspectRatio="xMidYMid meet">
<metadata>
Created by potrace 1.12, written by Peter Selinger 2001-2015
</metadata>
<g transform="translate(0.000000,54.000000) scale(0.100000,-0.100000)"
fill="#000000" stroke="none">
<path d="M490 465 l0 -55 -55 0 c-42 0 -55 -3 -55 -15 0 -12 13 -15 55 -15
l55 0 0 -45 c0 -43 -1 -45 -44 -64 -101 -44 -103 -187 -3 -234 44 -21 70 -21
114 0 100 47 98 190 -3 234 -43 19 -44 21 -44 64 l0 45 55 0 c42 0 55 3 55 15
0 12 -13 15 -55 15 l-55 0 0 55 c0 30 -4 55 -10 55 -5 0 -10 -25 -10 -55z m82
-234 c28 -25 33 -36 33 -76 0 -40 -5 -51 -33 -76 -24 -22 -42 -29 -72 -29 -30
0 -48 7 -72 29 -48 43 -48 109 0 152 24 22 42 29 72 29 30 0 48 -7 72 -29z"/>
</g>
</svg>
