<?xml version="1.0" standalone="no"?>
<!DOCTYPE svg PUBLIC "-//W3C//DTD SVG 20010904//EN"
 "http://www.w3.org/TR/2001/REC-SVG-20010904/DTD/svg10.dtd">
<svg version="1.0" xmlns="http://www.w3.org/2000/svg"
 width="100.000000pt" height="54.000000pt" viewBox="0 0 100.000000 54.000000"
 preserveAspectRatio="xMidYMid meet">
<metadata>
Created by potrace 1.12, written by Peter Selinger 2001-2015
</metadata>
<g transform="translate(0.000000,54.000000) scale(0.100000,-0.100000)"
fill="#000000" stroke="none">
<path d="M421 475 c1 -40 1 -40 10 -10 5 18 5 33 -1 39 -7 7 -10 -4 -9 -29z"/>
<path d="M460 489 c0 -11 -4 -17 -10 -14 -16 10 -12 -11 5 -25 13 -11 15 -7
15 24 0 20 -2 36 -5 36 -3 0 -5 -9 -5 -21z"/>
<path d="M490 475 c0 -32 3 -36 23 -33 17 2 22 10 22 33 0 23 -5 31 -22 33
-20 3 -23 -1 -23 -33z m40 0 c0 -16 -6 -25 -15 -25 -9 0 -15 9 -15 25 0 16 6
25 15 25 9 0 15 -9 15 -25z"/>
<path d="M560 475 c0 -29 3 -36 18 -33 11 2 17 13 17 33 0 20 -6 31 -17 33
-15 3 -18 -4 -18 -33z m30 15 c0 -5 -4 -10 -10 -10 -5 0 -10 5 -10 10 0 6 5
10 10 10 6 0 10 -4 10 -10z m0 -30 c0 -5 -4 -10 -10 -10 -5 0 -10 5 -10 10 0
6 5 10 10 10 6 0 10 -4 10 -10z"/>
<path d="M400 205 l0 -195 110 0 110 0 0 195 0 195 -110 0 -110 0 0 -195z
m198 173 c-3 -7 -22 -79 -44 -160 -21 -82 -41 -148 -44 -148 -5 0 -91 295 -90
313 0 4 41 7 91 7 69 0 90 -3 87 -12z m12 -188 l0 -170 -45 0 c-25 0 -45 3
-45 8 0 10 85 332 88 332 1 0 2 -76 2 -170z m-146 -18 l43 -152 -48 0 -49 0 1
163 c0 89 2 158 5 152 2 -5 24 -79 48 -163z"/>
</g>
</svg>
