<?xml version="1.0" standalone="no"?>
<!DOCTYPE svg PUBLIC "-//W3C//DTD SVG 20010904//EN"
 "http://www.w3.org/TR/2001/REC-SVG-20010904/DTD/svg10.dtd">
<svg version="1.0" xmlns="http://www.w3.org/2000/svg"
 width="100.000000pt" height="54.000000pt" viewBox="0 0 100.000000 54.000000"
 preserveAspectRatio="xMidYMid meet">
<metadata>
Created by potrace 1.12, written by Peter Selinger 2001-2015
</metadata>
<g transform="translate(0.000000,54.000000) scale(0.100000,-0.100000)"
fill="#000000" stroke="none">
<path d="M456 475 c-20 -59 -20 -59 -1 -51 13 5 15 -22 16 -202 l1 -207 23
100 c12 55 31 135 40 178 13 58 21 77 31 73 15 -6 16 9 5 59 -6 25 -12 12 -34
-85 -62 -266 -55 -257 -56 -73 -1 140 1 162 14 157 19 -8 19 -9 -4 50 l-18 49
-17 -48z"/>
<path d="M561 278 c-11 -28 -5 -35 34 -40 17 -3 24 -3 18 -1 -20 7 -15 29 10
42 l22 11 -22 -6 c-13 -3 -23 -1 -23 5 0 20 -31 11 -39 -11z m29 -2 c0 -8 -4
-18 -10 -21 -5 -3 -10 3 -10 14 0 12 5 21 10 21 6 0 10 -6 10 -14z"/>
<path d="M558 213 c-10 -2 -18 -9 -18 -14 0 -5 11 -7 25 -3 15 4 25 2 25 -5 0
-6 -7 -8 -15 -5 -23 9 -18 -2 10 -20 25 -17 26 -16 19 8 -4 17 -1 27 13 35 15
9 14 10 -12 10 -16 -1 -38 -3 -47 -6z"/>
<path d="M530 166 c0 -2 12 -12 28 -21 l27 -18 -19 21 c-17 20 -36 29 -36 18z"/>
<path d="M555 113 l-40 -13 40 6 c39 6 52 11 44 17 -2 2 -22 -2 -44 -10z"/>
</g>
</svg>
