<?xml version="1.0" standalone="no"?>
<!DOCTYPE svg PUBLIC "-//W3C//DTD SVG 20010904//EN"
 "http://www.w3.org/TR/2001/REC-SVG-20010904/DTD/svg10.dtd">
<svg version="1.0" xmlns="http://www.w3.org/2000/svg"
 width="100.000000pt" height="54.000000pt" viewBox="0 0 100.000000 54.000000"
 preserveAspectRatio="xMidYMid meet">
<metadata>
Created by potrace 1.12, written by Peter Selinger 2001-2015
</metadata>
<g transform="translate(0.000000,54.000000) scale(0.100000,-0.100000)"
fill="#000000" stroke="none">
<path d="M425 475 c-77 -27 -145 -124 -145 -205 0 -112 108 -220 220 -220 112
0 220 108 220 220 0 55 -23 106 -69 151 -66 66 -141 84 -226 54z m65 -10 c0
-3 -18 -29 -39 -58 -40 -52 -138 -134 -148 -123 -11 10 17 84 42 115 36 42
145 92 145 66z m98 -16 c24 -12 57 -39 72 -61 28 -38 47 -94 37 -105 -16 -15
-187 151 -187 182 0 11 36 4 78 -16z m-12 -103 c48 -48 48 -104 0 -152 -28
-28 -42 -34 -76 -34 -34 0 -48 6 -76 34 -28 28 -34 42 -34 76 0 34 6 48 34 76
28 28 42 34 76 34 34 0 48 -6 76 -34z m-213 -125 c51 -39 134 -138 124 -148
-11 -10 -67 9 -105 37 -38 27 -82 99 -82 133 0 24 4 22 63 -22z m337 22 c-1
-38 -40 -103 -80 -132 -40 -29 -96 -49 -107 -38 -9 10 67 101 120 144 58 47
67 51 67 26z"/>
<path d="M484 279 c-10 -17 13 -36 27 -22 12 12 4 33 -11 33 -5 0 -12 -5 -16
-11z"/>
</g>
</svg>
