<?xml version="1.0" standalone="no"?>
<!DOCTYPE svg PUBLIC "-//W3C//DTD SVG 20010904//EN"
 "http://www.w3.org/TR/2001/REC-SVG-20010904/DTD/svg10.dtd">
<svg version="1.0" xmlns="http://www.w3.org/2000/svg"
 width="100.000000pt" height="54.000000pt" viewBox="0 0 100.000000 54.000000"
 preserveAspectRatio="xMidYMid meet">
<metadata>
Created by potrace 1.12, written by Peter Selinger 2001-2015
</metadata>
<g transform="translate(0.000000,54.000000) scale(0.100000,-0.100000)"
fill="#000000" stroke="none">
<path d="M225 470 c-18 -29 -132 -330 -125 -330 4 0 36 70 70 156 l63 156 53
-133 c69 -174 74 -183 81 -176 5 6 -113 314 -127 330 -4 5 -11 3 -15 -3z"/>
<path d="M748 403 c6 -2 12 -12 12 -21 0 -15 2 -15 10 -2 9 15 -4 30 -25 29
-5 0 -4 -3 3 -6z"/>
<path d="M494 389 c-12 -21 -10 -119 4 -119 8 0 12 20 12 65 0 65 -3 75 -16
54z"/>
<path d="M578 388 c-2 -7 -1 -35 2 -62 l5 -48 20 23 c11 12 14 19 8 15 -10 -5
-13 5 -13 38 0 43 -13 62 -22 34z"/>
<path d="M663 389 c-6 -6 -9 -18 -6 -27 4 -9 2 -13 -4 -9 -6 4 -17 -1 -24 -11
-13 -15 -12 -16 4 -3 21 16 21 11 3 -34 -11 -26 -12 -35 -3 -35 7 0 21 30 33
65 20 64 19 76 -3 54z"/>
<path d="M710 380 c-9 -16 -7 -26 9 -49 18 -25 19 -30 6 -41 -8 -6 -23 -9 -35
-5 -11 4 -20 2 -20 -4 0 -14 35 -14 61 -1 23 13 25 53 3 71 -8 7 -13 21 -11
31 7 24 0 23 -13 -2z"/>
<path d="M788 335 l-26 -65 33 0 c19 0 36 4 39 9 3 4 -6 6 -19 3 -30 -5 -31 3
-6 68 11 27 16 50 12 50 -4 0 -19 -29 -33 -65z"/>
<path d="M439 313 c-13 -16 -12 -17 4 -4 16 13 21 21 13 21 -2 0 -10 -8 -17
-17z"/>
<path d="M536 285 c-3 -8 -1 -15 4 -15 6 0 10 7 10 15 0 8 -2 15 -4 15 -2 0
-6 -7 -10 -15z"/>
<path d="M415 280 c-3 -5 -1 -10 4 -10 6 0 11 5 11 10 0 6 -2 10 -4 10 -3 0
-8 -4 -11 -10z"/>
<path d="M554 232 c-22 -14 -35 -53 -29 -83 8 -34 37 -53 71 -45 20 5 24 13
24 41 0 22 -5 35 -13 35 -9 0 -12 -11 -9 -36 4 -33 2 -35 -19 -32 -15 2 -27
13 -33 31 -20 56 29 114 61 71 11 -15 13 -15 13 -2 0 24 -42 36 -66 20z"/>
<path d="M645 170 l0 -70 32 0 c17 0 35 5 38 10 4 7 -2 9 -19 4 -26 -6 -26 -6
-26 60 0 46 -4 66 -12 66 -9 0 -13 -21 -13 -70z"/>
<path d="M447 209 c-4 -13 -4 -25 -2 -28 3 -2 5 2 5 10 0 11 2 11 10 -1 15
-23 12 -33 -10 -27 -11 3 -20 1 -20 -3 0 -5 10 -10 23 -12 14 -2 23 -11 25
-25 2 -13 10 -23 18 -23 11 0 10 11 -7 58 -26 70 -35 80 -42 51z"/>
<path d="M204 155 c-10 -25 4 -45 30 -45 27 0 42 26 25 46 -15 19 -48 18 -55
-1z m38 -27 c-15 -15 -26 -4 -18 18 5 13 9 15 18 6 9 -9 9 -15 0 -24z"/>
<path d="M417 126 c-4 -10 -5 -21 -2 -24 9 -9 17 6 13 25 -3 17 -4 17 -11 -1z"/>
</g>
</svg>
