<?xml version="1.0" standalone="no"?>
<!DOCTYPE svg PUBLIC "-//W3C//DTD SVG 20010904//EN"
 "http://www.w3.org/TR/2001/REC-SVG-20010904/DTD/svg10.dtd">
<svg version="1.0" xmlns="http://www.w3.org/2000/svg"
 width="100.000000pt" height="54.000000pt" viewBox="0 0 100.000000 54.000000"
 preserveAspectRatio="xMidYMid meet">
<metadata>
Created by potrace 1.12, written by Peter Selinger 2001-2015
</metadata>
<g transform="translate(0.000000,54.000000) scale(0.100000,-0.100000)"
fill="#000000" stroke="none">
<path d="M437 488 c-20 -5 -60 -30 -87 -55 -95 -85 -103 -211 -20 -306 41 -46
94 -78 127 -76 10 1 1 6 -19 11 -22 6 -38 16 -38 25 0 8 -5 11 -10 8 -13 -8
-73 52 -65 65 3 5 0 10 -8 10 -10 0 -19 18 -27 50 -15 62 2 150 28 151 12 0
13 2 4 6 -9 3 -2 16 23 40 19 19 40 31 45 28 6 -3 10 0 10 8 0 10 18 19 50 27
61 15 146 -1 153 -28 4 -15 5 -15 6 1 2 33 -103 55 -172 35z"/>
<path d="M620 458 c0 -3 14 -20 31 -37 17 -17 28 -35 24 -41 -3 -5 0 -10 8
-10 10 0 19 -18 27 -50 15 -62 -2 -150 -28 -151 -12 0 -13 -2 -4 -6 9 -3 2
-16 -23 -40 -19 -19 -40 -31 -45 -28 -6 3 -10 -1 -10 -9 0 -10 -20 -19 -62
-29 -35 -9 -55 -16 -45 -16 48 -2 110 24 157 66 98 88 103 214 15 310 -24 27
-44 45 -45 41z"/>
<path d="M310 289 c0 -5 5 -7 10 -4 6 3 10 8 10 11 0 2 -4 4 -10 4 -5 0 -10
-5 -10 -11z"/>
<path d="M655 271 c-6 -11 13 -26 22 -17 4 3 0 6 -8 6 -11 0 -11 2 1 10 9 6
10 10 3 10 -6 0 -14 -4 -18 -9z"/>
<path d="M482 100 c0 -14 2 -19 5 -12 2 6 2 18 0 25 -3 6 -5 1 -5 -13z"/>
<path d="M512 101 c7 -9 13 -18 15 -20 1 -2 1 5 0 16 0 11 -7 20 -14 20 -10 0
-10 -4 -1 -16z"/>
</g>
</svg>
