<?xml version="1.0" standalone="no"?>
<!DOCTYPE svg PUBLIC "-//W3C//DTD SVG 20010904//EN"
 "http://www.w3.org/TR/2001/REC-SVG-20010904/DTD/svg10.dtd">
<svg version="1.0" xmlns="http://www.w3.org/2000/svg"
 width="100.000000pt" height="54.000000pt" viewBox="0 0 100.000000 54.000000"
 preserveAspectRatio="xMidYMid meet">
<metadata>
Created by potrace 1.12, written by Peter Selinger 2001-2015
</metadata>
<g transform="translate(0.000000,54.000000) scale(0.100000,-0.100000)"
fill="#000000" stroke="none">
<path d="M123 305 c-33 -85 -57 -155 -53 -155 4 0 31 60 60 133 29 72 56 136
60 140 4 4 17 -20 31 -54 13 -33 29 -61 34 -61 6 0 21 28 34 61 14 34 27 58
31 54 4 -4 31 -68 60 -140 29 -73 56 -133 61 -133 5 0 3 15 -4 33 -7 17 -35
87 -62 155 -27 67 -53 121 -58 119 -5 -1 -21 -32 -35 -67 l-26 -64 -12 30 c-8
16 -20 46 -28 67 -8 20 -19 37 -23 37 -4 0 -36 -70 -70 -155z"/>
<path d="M767 382 c-21 -23 -21 -41 -1 -63 20 -23 9 -42 -22 -36 -13 2 -24 0
-24 -4 0 -13 44 -11 58 3 17 17 15 46 -3 65 -14 14 -14 17 1 34 9 11 15 19 12
19 -3 0 -12 -8 -21 -18z"/>
<path d="M545 364 c-9 -15 -12 -23 -6 -20 6 4 11 0 11 -8 0 -9 -8 -16 -19 -16
-11 0 -22 -4 -25 -9 -3 -4 6 -6 21 -3 23 4 25 2 20 -17 -3 -14 -1 -21 9 -21
10 0 14 15 14 60 0 33 -2 60 -4 60 -2 0 -11 -12 -21 -26z"/>
<path d="M627 368 c-4 -12 -4 -24 -2 -27 3 -2 6 2 7 10 0 8 4 -6 7 -29 l6 -44
24 34 c22 30 22 31 3 14 l-22 -19 0 41 c0 45 -14 56 -23 20z"/>
<path d="M710 375 c-7 -9 -14 -29 -15 -45 -2 -17 -8 -37 -15 -45 -10 -12 -10
-15 3 -15 9 0 17 13 21 33 3 17 13 44 20 60 16 29 7 37 -14 12z"/>
<path d="M800 375 c0 -8 2 -15 4 -15 2 0 6 7 10 15 3 8 1 15 -4 15 -6 0 -10
-7 -10 -15z"/>
<path d="M840 373 c0 -10 -9 -37 -20 -60 l-19 -43 37 1 c23 1 29 3 15 6 -27 5
-27 8 -8 63 18 50 18 50 5 50 -5 0 -10 -8 -10 -17z"/>
<path d="M596 285 c-3 -8 -1 -15 4 -15 6 0 10 7 10 15 0 8 -2 15 -4 15 -2 0
-6 -7 -10 -15z"/>
<path d="M485 280 c-3 -5 -1 -10 4 -10 6 0 11 5 11 10 0 6 -2 10 -4 10 -3 0
-8 -4 -11 -10z"/>
<path d="M516 225 c-4 -10 -3 -21 2 -24 5 -3 12 -17 15 -31 4 -14 11 -32 16
-40 19 -28 17 -4 -4 54 -17 45 -23 55 -29 41z"/>
<path d="M596 218 c-19 -27 -20 -39 -4 -73 15 -34 29 -32 16 3 -16 42 -3 82
26 82 14 0 27 -6 29 -12 3 -8 6 -6 6 5 1 26 -54 23 -73 -5z"/>
<path d="M698 180 l4 -60 31 1 c32 2 32 2 4 6 -28 4 -29 6 -25 59 2 32 -1 54
-7 54 -6 0 -9 -24 -7 -60z"/>
<path d="M501 183 c-1 -6 -4 -20 -7 -30 -5 -17 -5 -17 6 0 6 10 9 23 6 30 -3
9 -5 9 -5 0z"/>
<path d="M171 167 c-17 -21 -3 -49 23 -45 15 2 21 10 21 28 0 28 -26 38 -44
17z m34 -27 c-5 -8 -11 -8 -17 -2 -6 6 -7 16 -3 22 5 8 11 8 17 2 6 -6 7 -16
3 -22z"/>
<path d="M294 165 c-9 -23 3 -45 25 -45 23 0 35 28 20 46 -15 18 -38 18 -45
-1z m31 -25 c-5 -8 -11 -8 -17 -2 -6 6 -7 16 -3 22 5 8 11 8 17 2 6 -6 7 -16
3 -22z"/>
<path d="M655 150 c0 -16 3 -30 8 -30 4 0 7 14 7 30 0 17 -3 30 -7 30 -5 0 -8
-13 -8 -30z"/>
</g>
</svg>
