<?xml version="1.0" standalone="no"?>
<!DOCTYPE svg PUBLIC "-//W3C//DTD SVG 20010904//EN"
 "http://www.w3.org/TR/2001/REC-SVG-20010904/DTD/svg10.dtd">
<svg version="1.0" xmlns="http://www.w3.org/2000/svg"
 width="100.000000pt" height="54.000000pt" viewBox="0 0 100.000000 54.000000"
 preserveAspectRatio="xMidYMid meet">
<metadata>
Created by potrace 1.12, written by Peter Selinger 2001-2015
</metadata>
<g transform="translate(0.000000,54.000000) scale(0.100000,-0.100000)"
fill="#000000" stroke="none">
<path d="M290 270 l0 -210 210 0 210 0 0 210 0 210 -210 0 -210 0 0 -210z
m200 117 c0 -51 -5 -88 -12 -95 -7 -7 -44 -12 -95 -12 l-83 0 0 95 0 95 95 0
95 0 0 -83z m210 -12 l0 -95 -83 0 c-51 0 -88 5 -95 12 -7 7 -12 44 -12 95 l0
83 95 0 95 0 0 -95z m-180 -105 c0 -13 -7 -20 -20 -20 -13 0 -20 7 -20 20 0
13 7 20 20 20 13 0 20 -7 20 -20z m-42 -22 c7 -7 12 -44 12 -95 l0 -83 -95 0
-95 0 0 95 0 95 83 0 c51 0 88 -5 95 -12z m222 -83 l0 -95 -95 0 -95 0 0 83
c0 51 5 88 12 95 7 7 44 12 95 12 l83 0 0 -95z"/>
</g>
</svg>
