<?xml version="1.0" standalone="no"?>
<!DOCTYPE svg PUBLIC "-//W3C//DTD SVG 20010904//EN"
 "http://www.w3.org/TR/2001/REC-SVG-20010904/DTD/svg10.dtd">
<svg version="1.0" xmlns="http://www.w3.org/2000/svg"
 width="100.000000pt" height="54.000000pt" viewBox="0 0 100.000000 54.000000"
 preserveAspectRatio="xMidYMid meet">
<metadata>
Created by potrace 1.12, written by Peter Selinger 2001-2015
</metadata>
<g transform="translate(0.000000,54.000000) scale(0.100000,-0.100000)"
fill="#000000" stroke="none">
<path d="M411 470 c0 -33 1 -34 10 -11 6 16 6 28 -1 35 -7 7 -10 -1 -9 -24z"/>
<path d="M462 473 c-10 -28 -10 -28 -12 -3 0 22 -2 23 -11 7 -11 -18 -5 -37
12 -37 10 0 32 50 25 57 -2 2 -9 -8 -14 -24z"/>
<path d="M501 470 c0 -29 1 -32 10 -17 7 11 7 23 0 35 -9 14 -10 11 -10 -18z"/>
<path d="M557 493 c-4 -3 -7 -17 -7 -30 0 -18 5 -23 23 -22 16 1 18 2 5 6 -21
5 -24 39 -5 46 6 3 7 6 1 6 -6 1 -14 -2 -17 -6z"/>
<path d="M200 250 l0 -220 300 0 300 0 0 220 0 220 -67 -2 -68 -1 60 -6 60 -6
0 -208 0 -207 -285 0 -285 0 0 207 0 208 60 6 60 6 -67 1 -68 2 0 -220z"/>
<path d="M307 383 c3 -7 9 -13 13 -13 4 0 10 6 13 13 3 7 -3 13 -13 13 -10 0
-16 -6 -13 -13z"/>
<path d="M362 385 c-11 -12 -10 -15 3 -15 8 0 15 7 15 15 0 18 -2 18 -18 0z"/>
<path d="M398 373 c7 -3 16 -2 19 1 4 3 -2 6 -13 5 -11 0 -14 -3 -6 -6z"/>
<path d="M273 293 c-3 -10 -7 -20 -9 -23 -1 -3 6 -6 17 -6 10 0 19 4 19 8 0 4
-4 8 -10 8 -5 0 -7 7 -4 15 4 8 3 15 0 15 -4 0 -9 -8 -13 -17z"/>
<path d="M320 300 c10 -6 11 -10 3 -10 -7 0 -13 -9 -13 -21 0 -30 24 -18 28
14 3 21 -1 27 -15 27 -15 0 -16 -2 -3 -10z"/>
<path d="M350 280 c0 -30 13 -40 26 -18 4 7 3 8 -4 4 -7 -4 -12 -2 -12 3 0 6
5 11 10 11 6 0 10 7 10 15 0 8 -7 15 -15 15 -10 0 -15 -10 -15 -30z"/>
<path d="M312 210 c5 -16 -8 -33 -32 -43 -13 -5 -13 -6 1 -6 8 -1 21 5 27 11
10 10 15 10 23 -2 8 -11 9 -9 4 10 -4 14 -12 30 -17 35 -7 7 -9 5 -6 -5z"/>
<path d="M348 195 c2 -14 6 -25 7 -25 1 0 5 11 7 25 3 16 1 25 -7 25 -8 0 -10
-9 -7 -25z"/>
<path d="M382 190 c0 -19 2 -27 5 -17 2 9 2 25 0 35 -3 9 -5 1 -5 -18z"/>
<path d="M408 190 c2 -16 5 -30 7 -30 2 0 5 14 7 30 3 19 0 30 -7 30 -7 0 -10
-11 -7 -30z"/>
<path d="M444 191 c1 -24 26 -44 26 -21 0 6 -4 9 -9 5 -5 -3 -12 5 -14 17 -4
21 -4 21 -3 -1z"/>
<path d="M482 193 c4 -36 33 -39 33 -3 0 16 -6 26 -18 28 -15 3 -18 -2 -15
-25z m28 -3 c0 -11 -4 -20 -10 -20 -5 0 -10 9 -10 20 0 11 5 20 10 20 6 0 10
-9 10 -20z"/>
<path d="M530 190 c0 -22 5 -30 18 -30 14 0 15 2 2 10 -13 9 -13 11 0 20 13 9
13 10 0 10 -13 0 -13 1 0 10 13 8 12 10 -2 10 -13 0 -18 -8 -18 -30z"/>
<path d="M304 115 c-4 -8 -4 -22 0 -30 6 -16 36 -21 36 -5 0 5 -7 7 -15 4 -11
-4 -15 0 -15 16 0 16 4 20 16 16 8 -3 12 -2 9 4 -9 15 -25 12 -31 -5z"/>
<path d="M405 120 c-4 -6 -10 -8 -15 -5 -4 3 -10 -4 -13 -15 -8 -30 8 -33 22
-4 6 15 16 22 23 18 7 -4 8 -3 4 4 -9 15 -13 15 -21 2z"/>
<path d="M468 100 c2 -17 5 -30 7 -30 2 0 5 13 7 30 3 19 0 30 -7 30 -7 0 -10
-11 -7 -30z"/>
<path d="M550 100 c0 -22 5 -30 18 -30 13 0 14 2 4 9 -8 5 -12 17 -10 27 4 16
7 15 18 -8 8 -18 21 -28 34 -27 21 0 21 1 1 9 -13 6 -15 9 -5 9 13 1 13 2 0
11 -13 9 -13 11 0 20 8 5 10 10 5 10 -6 0 -16 -5 -22 -11 -8 -8 -13 -8 -17 0
-13 21 -26 11 -26 -19z"/>
<path d="M350 95 c1 -26 2 -28 11 -12 8 14 8 22 0 30 -8 8 -11 3 -11 -18z"/>
<path d="M504 95 c1 -28 30 -25 34 3 2 19 1 19 -4 2 -7 -25 -21 -26 -27 -2 -3
13 -4 12 -3 -3z"/>
<path d="M424 92 c3 -6 -2 -13 -11 -15 -16 -4 -16 -5 -1 -6 21 -1 32 15 17 25
-7 4 -9 3 -5 -4z"/>
</g>
</svg>
