<?xml version="1.0" standalone="no"?>
<!DOCTYPE svg PUBLIC "-//W3C//DTD SVG 20010904//EN"
 "http://www.w3.org/TR/2001/REC-SVG-20010904/DTD/svg10.dtd">
<svg version="1.0" xmlns="http://www.w3.org/2000/svg"
 width="100.000000pt" height="54.000000pt" viewBox="0 0 100.000000 54.000000"
 preserveAspectRatio="xMidYMid meet">
<metadata>
Created by potrace 1.12, written by Peter Selinger 2001-2015
</metadata>
<g transform="translate(0.000000,54.000000) scale(0.100000,-0.100000)"
fill="#000000" stroke="none">
<path d="M487 534 c-4 -4 -7 -20 -7 -36 0 -20 -5 -28 -18 -28 -10 0 -35 -9
-57 -20 -39 -20 -39 -20 -60 0 -16 15 -24 17 -33 8 -9 -9 -7 -17 8 -33 20 -21
20 -21 0 -60 -11 -22 -20 -47 -20 -56 0 -13 -10 -19 -32 -21 -21 -2 -33 -8
-33 -18 0 -10 12 -16 33 -18 25 -3 32 -8 32 -25 0 -12 9 -37 21 -56 l20 -33
-20 -22 c-16 -17 -18 -25 -9 -34 9 -9 17 -7 33 8 21 20 21 20 60 0 22 -11 47
-20 57 -20 14 0 18 -8 18 -35 0 -28 4 -35 20 -35 16 0 20 7 20 35 0 27 4 35
18 35 10 0 35 9 57 20 39 20 39 20 60 0 16 -15 24 -17 33 -8 9 9 7 17 -8 33
-20 21 -20 21 0 60 11 22 20 47 20 56 0 13 10 19 33 21 20 2 32 8 32 18 0 10
-12 16 -32 18 -26 3 -33 8 -33 25 0 12 -9 37 -21 56 l-20 33 20 22 c16 17 18
25 9 34 -9 9 -17 7 -33 -8 -21 -20 -21 -20 -60 0 -22 11 -47 20 -56 20 -13 0
-19 10 -21 32 -3 31 -17 45 -31 32z m101 -93 c67 -34 102 -93 102 -171 0 -111
-79 -190 -190 -190 -111 0 -190 79 -190 190 0 111 77 189 188 190 33 0 67 -7
90 -19z"/>
</g>
</svg>
