<?xml version="1.0" standalone="no"?>
<!DOCTYPE svg PUBLIC "-//W3C//DTD SVG 20010904//EN"
 "http://www.w3.org/TR/2001/REC-SVG-20010904/DTD/svg10.dtd">
<svg version="1.0" xmlns="http://www.w3.org/2000/svg"
 width="100.000000pt" height="54.000000pt" viewBox="0 0 100.000000 54.000000"
 preserveAspectRatio="xMidYMid meet">
<metadata>
Created by potrace 1.12, written by Peter Selinger 2001-2015
</metadata>
<g transform="translate(0.000000,54.000000) scale(0.100000,-0.100000)"
fill="#000000" stroke="none">
<path d="M281 448 c1 -29 4 -43 6 -30 6 28 39 29 48 1 4 -11 9 -18 12 -16 2 3
0 15 -7 26 -8 15 -8 21 0 21 6 0 10 10 8 23 -2 17 -11 23 -35 25 l-33 3 1 -53z
m59 27 c0 -9 -9 -15 -25 -15 -16 0 -25 6 -25 15 0 9 9 15 25 15 16 0 25 -6 25
-15z"/>
<path d="M373 450 c0 -30 2 -43 4 -27 2 15 2 39 0 55 -2 15 -4 2 -4 -28z"/>
<path d="M411 481 c-16 -29 -13 -49 8 -70 26 -26 61 -17 61 15 0 16 -6 24 -17
23 -11 0 -13 -3 -5 -6 22 -9 13 -33 -13 -33 -32 0 -46 44 -21 68 14 14 20 15
37 4 18 -11 20 -11 17 0 -8 22 -55 22 -67 -1z"/>
<path d="M502 450 c0 -37 2 -47 7 -30 4 16 14 25 26 25 12 0 22 -9 26 -25 5
-17 7 -7 7 30 -1 30 -3 45 -5 33 -3 -16 -11 -23 -28 -23 -17 0 -25 7 -28 23
-2 12 -4 -3 -5 -33z"/>
<path d="M592 493 c12 -3 18 -18 21 -51 l3 -47 2 47 c2 35 6 48 20 51 9 3 -1
5 -23 5 -22 0 -32 -2 -23 -5z"/>
<path d="M460 341 c138 -6 148 -7 197 -36 29 -16 53 -32 53 -35 0 -3 -24 -18
-53 -35 -49 -29 -59 -30 -197 -36 l-145 -5 141 -2 142 -2 66 38 c36 20 66 39
66 42 0 3 -30 22 -66 43 l-66 37 -142 -2 -141 -2 145 -5z"/>
<path d="M409 314 c-6 -8 -9 -17 -5 -21 3 -3 6 -1 6 5 0 7 7 12 15 12 21 0 19
-23 -5 -53 -26 -33 -25 -37 8 -36 26 1 26 1 4 8 l-24 6 21 19 c24 22 28 61 7
69 -8 3 -20 -1 -27 -9z"/>
<path d="M470 295 c0 -19 5 -25 18 -23 11 2 18 -5 20 -21 3 -20 0 -23 -17 -18
-12 3 -21 1 -21 -5 0 -5 10 -8 23 -6 31 4 37 53 8 63 -28 8 -27 23 2 28 19 4
18 4 -5 6 -24 1 -28 -3 -28 -24z"/>
<path d="M363 124 c-7 -19 10 -50 26 -47 6 2 11 -4 11 -13 0 -12 -6 -15 -21
-11 -16 4 -18 3 -8 -9 24 -29 55 28 39 71 -11 28 -37 33 -47 9z m37 -14 c0
-11 -7 -20 -15 -20 -8 0 -15 9 -15 20 0 11 7 20 15 20 8 0 15 -9 15 -20z"/>
<path d="M437 134 c-12 -13 -7 -81 7 -93 21 -17 38 11 34 56 -3 36 -23 54 -41
37z m33 -44 c0 -29 -4 -40 -15 -40 -11 0 -15 11 -15 40 0 29 4 40 15 40 11 0
15 -11 15 -40z"/>
<path d="M500 126 c0 -8 4 -17 8 -20 13 -8 35 11 28 23 -10 16 -36 14 -36 -3z
m30 0 c0 -3 -4 -8 -10 -11 -5 -3 -10 -1 -10 4 0 6 5 11 10 11 6 0 10 -2 10 -4z"/>
</g>
</svg>
