<?xml version="1.0" standalone="no"?>
<!DOCTYPE svg PUBLIC "-//W3C//DTD SVG 20010904//EN"
 "http://www.w3.org/TR/2001/REC-SVG-20010904/DTD/svg10.dtd">
<svg version="1.0" xmlns="http://www.w3.org/2000/svg"
 width="100.000000pt" height="54.000000pt" viewBox="0 0 100.000000 54.000000"
 preserveAspectRatio="xMidYMid meet">
<metadata>
Created by potrace 1.12, written by Peter Selinger 2001-2015
</metadata>
<g transform="translate(0.000000,54.000000) scale(0.100000,-0.100000)"
fill="#000000" stroke="none">
<path d="M440 493 c-63 -25 -110 -95 -110 -163 0 -69 77 -160 136 -160 31 0
30 -9 -6 -70 -16 -28 -30 -53 -30 -55 0 -3 32 -5 70 -5 39 0 70 2 70 5 0 2
-13 27 -30 55 -36 61 -37 70 -6 70 59 0 136 91 136 160 0 50 -32 113 -71 140
-33 24 -125 37 -159 23z m130 -25 c54 -28 82 -72 82 -133 0 -52 -24 -98 -65
-129 -21 -16 -43 -21 -87 -21 -66 0 -102 20 -133 73 -24 41 -24 113 0 155 20
35 92 77 133 77 14 0 46 -10 70 -22z"/>
</g>
</svg>
