<?xml version="1.0" standalone="no"?>
<!DOCTYPE svg PUBLIC "-//W3C//DTD SVG 20010904//EN"
 "http://www.w3.org/TR/2001/REC-SVG-20010904/DTD/svg10.dtd">
<svg version="1.0" xmlns="http://www.w3.org/2000/svg"
 width="100.000000pt" height="54.000000pt" viewBox="0 0 100.000000 54.000000"
 preserveAspectRatio="xMidYMid meet">
<metadata>
Created by potrace 1.12, written by Peter Selinger 2001-2015
</metadata>
<g transform="translate(0.000000,54.000000) scale(0.100000,-0.100000)"
fill="#000000" stroke="none">
<path d="M619 436 c-17 -8 -24 -20 -24 -41 0 -25 6 -33 42 -50 49 -22 59 -38
37 -60 -21 -21 -31 -19 -59 11 -24 26 -25 26 -25 6 0 -12 11 -29 26 -38 34
-23 75 -9 88 29 12 33 -6 56 -57 73 -21 7 -32 17 -32 30 0 26 44 32 62 8 16
-21 31 -10 17 13 -15 24 -48 33 -75 19z"/>
<path d="M285 357 c-28 -94 -29 -97 -15 -97 5 0 12 11 16 25 5 20 12 25 40 25
28 0 35 -5 40 -25 5 -22 24 -36 24 -18 0 26 -57 173 -67 173 -7 0 -23 -36 -38
-83z m64 -19 c1 -5 -11 -8 -25 -8 -20 0 -25 4 -20 16 3 9 9 28 13 42 l6 27 13
-35 c7 -19 13 -38 13 -42z"/>
<path d="M410 350 c0 -53 4 -90 10 -90 6 0 10 31 10 73 1 80 10 76 30 -15 8
-34 19 -58 26 -58 7 0 20 26 29 58 9 31 18 62 20 67 2 6 4 -20 4 -57 1 -38 5
-68 11 -68 6 0 10 37 10 90 0 71 -3 90 -14 90 -9 0 -21 -22 -31 -57 -28 -101
-29 -102 -49 -19 -14 62 -21 76 -37 76 -17 0 -19 -8 -19 -90z"/>
<path d="M730 350 l0 -90 50 0 c28 0 50 5 50 10 0 6 -18 10 -40 10 l-40 0 0
80 c0 47 -4 80 -10 80 -6 0 -10 -37 -10 -90z"/>
<path d="M160 165 c-15 -18 -10 -45 13 -59 34 -22 73 27 47 59 -16 19 -44 19
-60 0z"/>
</g>
</svg>
