<?xml version="1.0" standalone="no"?>
<!DOCTYPE svg PUBLIC "-//W3C//DTD SVG 20010904//EN"
 "http://www.w3.org/TR/2001/REC-SVG-20010904/DTD/svg10.dtd">
<svg version="1.0" xmlns="http://www.w3.org/2000/svg"
 width="100.000000pt" height="54.000000pt" viewBox="0 0 100.000000 54.000000"
 preserveAspectRatio="xMidYMid meet">
<metadata>
Created by potrace 1.12, written by Peter Selinger 2001-2015
</metadata>
<g transform="translate(0.000000,54.000000) scale(0.100000,-0.100000)"
fill="#000000" stroke="none">
<path d="M294 337 c-32 -9 -54 -41 -54 -76 0 -32 42 -61 88 -61 23 0 42 3 42
8 0 4 30 16 66 26 63 18 67 18 127 1 34 -10 66 -22 72 -27 21 -18 76 -8 101
19 29 32 28 60 -5 90 -32 28 -54 33 -83 19 -13 -7 -49 -20 -81 -30 -69 -22
-109 -17 -207 27 -34 15 -31 15 -66 4z"/>
</g>
</svg>
