<?xml version="1.0" standalone="no"?>
<!DOCTYPE svg PUBLIC "-//W3C//DTD SVG 20010904//EN"
 "http://www.w3.org/TR/2001/REC-SVG-20010904/DTD/svg10.dtd">
<svg version="1.0" xmlns="http://www.w3.org/2000/svg"
 width="100.000000pt" height="54.000000pt" viewBox="0 0 100.000000 54.000000"
 preserveAspectRatio="xMidYMid meet">
<metadata>
Created by potrace 1.12, written by Peter Selinger 2001-2015
</metadata>
<g transform="translate(0.000000,54.000000) scale(0.100000,-0.100000)"
fill="#000000" stroke="none">
<path d="M256 459 c-53 -63 -61 -88 -61 -189 0 -85 3 -100 26 -140 54 -91 35
-92 295 16 126 53 242 97 257 99 38 3 54 20 38 39 -7 8 -18 13 -26 10 -11 -4
-142 47 -491 192 -6 3 -23 -9 -38 -27z m273 -89 c127 -52 231 -97 231 -100 0
-4 -403 -173 -470 -198 -17 -6 -64 80 -76 139 -10 46 -10 72 0 118 12 59 59
145 76 139 4 -2 112 -46 239 -98z"/>
</g>
</svg>
