<?xml version="1.0" standalone="no"?>
<!DOCTYPE svg PUBLIC "-//W3C//DTD SVG 20010904//EN"
 "http://www.w3.org/TR/2001/REC-SVG-20010904/DTD/svg10.dtd">
<svg version="1.0" xmlns="http://www.w3.org/2000/svg"
 width="100.000000pt" height="54.000000pt" viewBox="0 0 100.000000 54.000000"
 preserveAspectRatio="xMidYMid meet">
<metadata>
Created by potrace 1.12, written by Peter Selinger 2001-2015
</metadata>
<g transform="translate(0.000000,54.000000) scale(0.100000,-0.100000)"
fill="#000000" stroke="none">
<path d="M490 512 c0 -25 -5 -29 -47 -40 -63 -17 -128 -82 -145 -145 -11 -42
-15 -47 -40 -47 -15 0 -28 -4 -28 -10 0 -5 13 -10 28 -10 25 0 29 -5 40 -47
17 -63 82 -128 145 -145 42 -11 47 -15 47 -40 0 -15 5 -28 10 -28 6 0 10 13
10 28 0 25 5 29 47 40 63 17 128 82 145 145 11 42 15 47 40 47 15 0 28 5 28
10 0 6 -13 10 -28 10 -25 0 -29 5 -40 47 -17 63 -82 128 -145 145 -42 11 -47
15 -47 40 0 15 -4 28 -10 28 -5 0 -10 -13 -10 -28z m112 -82 c100 -68 118
-196 40 -282 -78 -87 -188 -93 -271 -15 -57 54 -77 134 -50 204 13 36 66 92
104 109 45 21 135 13 177 -16z"/>
<path d="M487 384 c-4 -4 -7 -12 -7 -18 0 -6 5 -4 10 4 9 13 11 13 21 0 9 -12
10 -12 7 -1 -5 17 -21 25 -31 15z"/>
<path d="M473 353 c-28 -5 -30 -23 -3 -23 18 0 20 -7 20 -70 0 -61 -2 -70 -18
-70 -10 0 -27 7 -38 15 -22 16 -34 19 -34 7 0 -13 68 -42 100 -42 32 0 100 29
100 42 0 12 -12 9 -34 -7 -11 -8 -28 -15 -38 -15 -16 0 -18 9 -18 70 0 63 2
70 20 70 11 0 20 5 20 10 0 6 -6 10 -14 10 -8 0 -20 2 -28 4 -7 2 -23 1 -35
-1z"/>
</g>
</svg>
