<?xml version="1.0" standalone="no"?>
<!DOCTYPE svg PUBLIC "-//W3C//DTD SVG 20010904//EN"
 "http://www.w3.org/TR/2001/REC-SVG-20010904/DTD/svg10.dtd">
<svg version="1.0" xmlns="http://www.w3.org/2000/svg"
 width="100.000000pt" height="54.000000pt" viewBox="0 0 100.000000 54.000000"
 preserveAspectRatio="xMidYMid meet">
<metadata>
Created by potrace 1.12, written by Peter Selinger 2001-2015
</metadata>
<g transform="translate(0.000000,54.000000) scale(0.100000,-0.100000)"
fill="#000000" stroke="none">
<path d="M342 460 c0 -19 2 -27 5 -17 2 9 2 25 0 35 -3 9 -5 1 -5 -18z"/>
<path d="M271 457 c2 -1 15 -11 29 -22 l25 -20 -19 23 c-11 12 -24 22 -29 22
-6 0 -8 -1 -6 -3z"/>
<path d="M381 438 c-14 -23 -14 -23 8 -4 22 20 25 26 13 26 -4 0 -13 -10 -21
-22z"/>
<path d="M263 393 c9 -2 25 -2 35 0 9 3 1 5 -18 5 -19 0 -27 -2 -17 -5z"/>
<path d="M393 393 c9 -2 25 -2 35 0 9 3 1 5 -18 5 -19 0 -27 -2 -17 -5z"/>
<path d="M341 340 c-2 -69 -25 -169 -51 -220 -11 -22 -18 -40 -15 -40 9 0 44
78 56 126 l13 49 11 -45 c15 -58 54 -145 61 -137 3 3 -1 16 -9 29 -27 42 -49
121 -56 208 -7 73 -8 77 -10 30z"/>
<path d="M565 248 c8 -35 12 -44 19 -37 7 8 -6 69 -16 69 -6 0 -7 -13 -3 -32z"/>
<path d="M616 269 c-10 -31 -16 -69 -12 -69 7 0 26 73 21 78 -3 3 -7 -1 -9 -9z"/>
<path d="M644 265 c-4 -8 -1 -22 6 -30 6 -8 8 -20 4 -27 -6 -11 -4 -11 7 0 11
10 11 16 1 32 -16 26 -15 33 3 26 8 -3 15 -1 15 4 0 16 -30 11 -36 -5z"/>
<path d="M697 263 c-3 -10 -8 -28 -12 -40 -5 -19 -3 -23 17 -22 15 1 17 3 6 6
-13 3 -15 10 -7 35 5 18 7 33 5 36 -2 2 -6 -5 -9 -15z"/>
<path d="M517 263 c-2 -5 0 -21 4 -38 7 -29 7 -29 8 8 1 35 -3 46 -12 30z"/>
<path d="M551 214 c0 -11 3 -14 6 -6 3 7 2 16 -1 19 -3 4 -6 -2 -5 -13z"/>
<path d="M501 140 c0 -8 6 -28 14 -45 7 -16 14 -23 14 -15 0 8 -6 29 -14 45
-7 17 -14 23 -14 15z"/>
<path d="M552 138 c-16 -16 -15 -43 3 -58 19 -16 45 -6 44 17 -1 17 -2 17 -6
1 -2 -10 -11 -18 -18 -18 -19 0 -29 38 -15 55 15 18 9 20 -8 3z"/>
<path d="M610 110 c0 -35 3 -40 23 -39 18 1 19 2 4 6 -15 4 -18 12 -15 39 2
19 0 34 -4 34 -4 0 -8 -18 -8 -40z"/>
<path d="M330 75 c0 -8 7 -15 15 -15 8 0 15 7 15 15 0 8 -7 15 -15 15 -8 0
-15 -7 -15 -15z"/>
</g>
</svg>
