<?xml version="1.0" standalone="no"?>
<!DOCTYPE svg PUBLIC "-//W3C//DTD SVG 20010904//EN"
 "http://www.w3.org/TR/2001/REC-SVG-20010904/DTD/svg10.dtd">
<svg version="1.0" xmlns="http://www.w3.org/2000/svg"
 width="100.000000pt" height="54.000000pt" viewBox="0 0 100.000000 54.000000"
 preserveAspectRatio="xMidYMid meet">
<metadata>
Created by potrace 1.12, written by Peter Selinger 2001-2015
</metadata>
<g transform="translate(0.000000,54.000000) scale(0.100000,-0.100000)"
fill="#000000" stroke="none">
<path d="M412 453 c2 -20 8 -28 21 -27 10 1 16 -3 14 -10 -2 -6 -12 -10 -21
-10 -19 2 -17 -17 2 -24 17 -5 36 42 28 72 -4 17 -13 26 -27 26 -16 0 -20 -5
-17 -27z m33 -3 c0 -7 -6 -15 -12 -17 -8 -3 -13 4 -13 17 0 13 5 20 13 18 6
-3 12 -11 12 -18z"/>
<path d="M477 474 c-12 -13 -8 -71 7 -83 20 -17 38 10 34 51 -3 31 -25 48 -41
32z m28 -42 c0 -46 -19 -44 -23 2 -3 28 0 37 10 34 7 -3 13 -19 13 -36z"/>
<path d="M537 474 c-9 -10 2 -24 19 -24 8 0 14 7 14 15 0 15 -21 21 -33 9z"/>
<path d="M348 307 c-32 -17 -58 -34 -58 -37 0 -3 24 -20 54 -38 52 -30 59 -32
156 -32 97 0 104 2 156 32 30 18 54 35 54 38 0 3 -26 20 -59 38 -54 30 -65 32
-152 32 -87 0 -98 -3 -151 -33z m293 -4 c27 -16 49 -30 49 -33 0 -3 -20 -17
-45 -33 -42 -25 -55 -27 -145 -27 -90 0 -103 2 -145 27 -25 16 -45 30 -45 33
0 3 21 17 48 32 42 24 57 27 141 28 83 0 98 -3 142 -27z"/>
<path d="M449 303 c-11 -15 -11 -16 1 -5 8 6 18 12 22 12 12 0 10 -38 -2 -45
-5 -3 -15 -15 -20 -26 -9 -17 -7 -19 17 -18 15 1 20 3 11 6 -15 4 -15 6 0 32
25 44 0 82 -29 44z"/>
<path d="M510 296 c0 -15 7 -26 20 -29 14 -3 18 -10 14 -22 -4 -10 -13 -14
-23 -10 -13 5 -14 4 -3 -6 19 -20 51 15 35 39 -6 9 -16 16 -22 15 -18 -4 -13
15 7 26 15 9 15 10 -5 11 -18 0 -23 -6 -23 -24z"/>
<path d="M388 142 c-12 -15 -11 -16 4 -3 28 22 36 -14 9 -43 -28 -29 -27 -36
7 -35 17 1 20 3 9 6 -15 4 -16 6 -2 26 8 12 15 29 15 38 0 24 -26 31 -42 11z"/>
<path d="M509 136 c-15 -33 -4 -76 20 -76 23 0 35 39 21 74 -12 33 -27 33 -41
2z m31 -31 c0 -37 -13 -47 -24 -19 -8 20 2 54 15 54 5 0 9 -16 9 -35z"/>
<path d="M575 150 c-10 -17 12 -37 25 -24 8 8 6 15 -4 23 -10 9 -16 9 -21 1z
m20 -10 c3 -5 1 -10 -4 -10 -6 0 -11 5 -11 10 0 6 2 10 4 10 3 0 8 -4 11 -10z"/>
<path d="M457 143 c21 -4 21 -6 7 -40 -8 -19 -13 -38 -10 -41 3 -2 8 4 12 14
3 10 10 29 15 42 13 32 12 32 -18 31 -23 -1 -24 -3 -6 -6z"/>
</g>
</svg>
