<?xml version="1.0" standalone="no"?>
<!DOCTYPE svg PUBLIC "-//W3C//DTD SVG 20010904//EN"
 "http://www.w3.org/TR/2001/REC-SVG-20010904/DTD/svg10.dtd">
<svg version="1.0" xmlns="http://www.w3.org/2000/svg"
 width="100.000000pt" height="54.000000pt" viewBox="0 0 100.000000 54.000000"
 preserveAspectRatio="xMidYMid meet">
<metadata>
Created by potrace 1.12, written by Peter Selinger 2001-2015
</metadata>
<g transform="translate(0.000000,54.000000) scale(0.100000,-0.100000)"
fill="#000000" stroke="none">
<path d="M415 451 c-157 -72 -152 -299 7 -366 70 -29 161 -13 217 38 58 53 77
157 42 232 -46 100 -165 143 -266 96z m153 -6 c49 -21 81 -52 103 -100 45 -96
-1 -207 -103 -250 -92 -38 -195 5 -239 100 -44 94 -2 201 96 246 49 23 94 24
143 4z"/>
<path d="M359 313 c-8 -10 -9 -14 -2 -10 8 5 13 -7 16 -40 3 -48 3 -48 5 10 1
31 0 57 -2 57 -2 0 -10 -8 -17 -17z"/>
<path d="M424 316 c-11 -27 1 -51 24 -50 12 0 22 -5 22 -12 0 -20 -19 -27 -37
-12 -14 11 -15 11 -11 -2 2 -8 16 -15 29 -15 22 0 24 4 24 50 0 44 -3 50 -23
53 -13 2 -24 -3 -28 -12z m43 -12 c8 -21 -13 -42 -28 -27 -13 13 -5 43 11 43
6 0 13 -7 17 -16z"/>
<path d="M504 316 c-11 -27 1 -51 24 -50 12 0 22 -5 22 -12 0 -20 -19 -27 -37
-12 -14 11 -15 11 -11 -2 2 -8 16 -15 29 -15 22 0 24 4 24 50 0 44 -3 50 -23
53 -13 2 -24 -3 -28 -12z m43 -12 c8 -21 -13 -42 -28 -27 -13 13 -5 43 11 43
6 0 13 -7 17 -16z"/>
<path d="M584 316 c-11 -27 1 -51 24 -50 12 0 22 -5 22 -12 0 -20 -19 -27 -37
-12 -14 11 -15 11 -11 -2 2 -8 16 -15 29 -15 22 0 24 4 24 50 0 44 -3 50 -23
53 -13 2 -24 -3 -28 -12z m43 -12 c8 -21 -13 -42 -28 -27 -13 13 -5 43 11 43
6 0 13 -7 17 -16z"/>
</g>
</svg>
