<?xml version="1.0" standalone="no"?>
<!DOCTYPE svg PUBLIC "-//W3C//DTD SVG 20010904//EN"
 "http://www.w3.org/TR/2001/REC-SVG-20010904/DTD/svg10.dtd">
<svg version="1.0" xmlns="http://www.w3.org/2000/svg"
 width="100.000000pt" height="54.000000pt" viewBox="0 0 100.000000 54.000000"
 preserveAspectRatio="xMidYMid meet">
<metadata>
Created by potrace 1.12, written by Peter Selinger 2001-2015
</metadata>
<g transform="translate(0.000000,54.000000) scale(0.100000,-0.100000)"
fill="#000000" stroke="none">
<path d="M140 275 l0 -205 360 0 360 0 0 205 0 205 -360 0 -360 0 0 -205z
m698 -2 l-3 -188 -335 0 -335 0 -3 188 -2 187 340 0 340 0 -2 -187z"/>
<path d="M283 360 c0 -30 2 -43 4 -27 2 15 2 39 0 55 -2 15 -4 2 -4 -28z"/>
<path d="M387 403 c-16 -15 -6 -43 18 -49 14 -3 25 -12 25 -20 0 -17 -36 -19
-43 -1 -3 7 -6 4 -6 -6 -1 -14 5 -18 26 -15 38 4 43 35 9 48 -14 5 -26 14 -26
19 0 18 21 23 38 9 15 -12 16 -11 3 5 -14 18 -33 22 -44 10z"/>
<path d="M491 358 c1 -29 4 -43 6 -30 5 27 29 29 38 2 3 -11 11 -20 16 -20 6
0 7 6 2 12 -4 7 -7 29 -8 48 0 31 -3 35 -27 38 -28 3 -28 3 -27 -50z m47 19
c2 -12 -3 -17 -17 -17 -15 0 -21 6 -21 21 0 25 33 22 38 -4z"/>
<path d="M570 360 c0 -48 1 -50 29 -50 30 0 41 14 41 54 0 28 -18 46 -47 46
-21 0 -23 -4 -23 -50z m50 26 c18 -23 8 -61 -17 -64 -20 -3 -23 1 -23 31 0 47
16 61 40 33z"/>
<path d="M710 390 c0 -25 -37 -27 -43 -2 -3 9 -5 -5 -4 -33 0 -27 2 -40 4 -27
3 13 12 22 23 22 11 0 20 -9 23 -22 2 -13 5 1 6 30 0 28 -1 52 -4 52 -3 0 -5
-9 -5 -20z"/>
<path d="M312 358 c-2 -46 -1 -48 26 -47 22 1 23 2 5 6 -18 3 -23 13 -26 46
l-4 42 -1 -47z"/>
</g>
</svg>
