<?xml version="1.0" standalone="no"?>
<!DOCTYPE svg PUBLIC "-//W3C//DTD SVG 20010904//EN"
 "http://www.w3.org/TR/2001/REC-SVG-20010904/DTD/svg10.dtd">
<svg version="1.0" xmlns="http://www.w3.org/2000/svg"
 width="100.000000pt" height="54.000000pt" viewBox="0 0 100.000000 54.000000"
 preserveAspectRatio="xMidYMid meet">
<metadata>
Created by potrace 1.12, written by Peter Selinger 2001-2015
</metadata>
<g transform="translate(0.000000,54.000000) scale(0.100000,-0.100000)"
fill="#000000" stroke="none">
<path d="M501 445 c0 -35 1 -37 10 -17 6 15 5 30 -1 40 -7 13 -9 8 -9 -23z"/>
<path d="M567 473 c-4 -3 -7 -19 -7 -35 0 -23 4 -28 23 -27 16 1 18 2 5 6 -10
2 -18 8 -18 13 0 5 8 11 18 13 16 4 16 5 0 6 -10 0 -18 5 -18 10 0 5 8 12 18
14 14 4 14 5 1 6 -9 0 -19 -2 -22 -6z"/>
<path d="M391 438 c1 -24 3 -27 6 -10 2 12 9 20 14 17 5 -3 6 1 3 9 -11 27
-24 17 -23 -16z"/>
<path d="M428 445 c-3 -14 -1 -28 3 -31 5 -3 9 9 9 25 0 38 -6 40 -12 6z"/>
<path d="M456 454 c-9 -24 -7 -36 5 -28 6 3 15 0 20 -7 7 -11 9 -10 9 4 0 9
-8 17 -17 18 -11 0 -13 3 -5 6 14 5 16 23 3 23 -5 0 -12 -7 -15 -16z"/>
<path d="M200 245 l0 -205 300 0 300 0 0 205 0 205 -56 0 c-34 0 -53 -4 -49
-10 3 -6 26 -10 51 -10 l44 0 -2 -187 -3 -188 -285 0 -285 0 -3 188 -2 187 50
0 c27 0 50 5 50 10 0 6 -25 10 -55 10 l-55 0 0 -205z"/>
<path d="M527 433 c-4 -3 -7 -11 -7 -17 0 -6 5 -5 12 2 6 6 9 14 7 17 -3 3 -9
2 -12 -2z"/>
<path d="M418 330 c2 -16 5 -30 7 -30 2 0 5 14 7 30 3 19 0 30 -7 30 -7 0 -10
-11 -7 -30z"/>
<path d="M457 345 c6 -11 12 -27 15 -35 3 -9 7 -4 10 13 3 15 3 25 0 22 -3 -2
-12 1 -20 8 -13 10 -14 9 -5 -8z"/>
<path d="M500 328 c0 -18 4 -28 8 -22 4 6 14 14 22 17 12 4 11 6 -2 6 -10 1
-18 6 -18 12 0 6 9 9 20 6 11 -3 18 -1 14 4 -3 5 -14 9 -25 9 -15 0 -19 -7
-19 -32z"/>
<path d="M568 353 c7 -3 16 -2 19 1 4 3 -2 6 -13 5 -11 0 -14 -3 -6 -6z"/>
<path d="M280 241 c0 -6 5 -13 10 -16 6 -3 10 1 10 9 0 9 -4 16 -10 16 -5 0
-10 -4 -10 -9z"/>
<path d="M329 218 c5 -30 6 -31 9 -8 2 14 9 28 16 32 7 5 3 8 -10 8 -18 0 -20
-5 -15 -32z"/>
<path d="M372 220 c0 -19 2 -27 5 -17 2 9 2 25 0 35 -3 9 -5 1 -5 -18z"/>
<path d="M399 218 c5 -32 6 -32 9 -5 4 30 22 37 22 8 0 -10 8 -25 18 -32 14
-11 15 -11 5 1 -7 8 -13 24 -13 37 0 17 -6 23 -23 23 -21 0 -23 -4 -18 -32z"/>
<path d="M472 225 c0 -16 2 -22 5 -12 2 9 2 23 0 30 -3 6 -5 -1 -5 -18z"/>
<path d="M490 215 c0 -34 20 -49 35 -25 3 6 -1 7 -9 4 -12 -5 -16 0 -16 19 0
16 7 27 18 30 13 4 11 5 -5 6 -20 1 -23 -4 -23 -34z"/>
<path d="M558 243 c7 -3 16 -2 19 1 4 3 -2 6 -13 5 -11 0 -14 -3 -6 -6z"/>
<path d="M270 210 c0 -4 9 -10 20 -13 11 -3 20 -2 20 3 0 4 -9 10 -20 13 -11
3 -20 2 -20 -3z"/>
<path d="M558 213 c7 -3 16 -2 19 1 4 3 -2 6 -13 5 -11 0 -14 -3 -6 -6z"/>
<path d="M230 190 c0 -6 7 -10 15 -10 8 0 15 2 15 4 0 2 -7 6 -15 10 -8 3 -15
1 -15 -4z"/>
<path d="M558 183 c7 -3 16 -2 19 1 4 3 -2 6 -13 5 -11 0 -14 -3 -6 -6z"/>
<path d="M274 126 c-8 -21 -1 -49 14 -52 7 -1 8 0 2 3 -5 2 -10 16 -10 29 0
32 27 31 33 -1 4 -23 4 -23 3 2 -1 31 -32 45 -42 19z"/>
<path d="M331 110 c0 -33 1 -34 10 -11 6 16 6 28 -1 35 -7 7 -10 -1 -9 -24z"/>
<path d="M356 118 c-3 -13 -1 -27 4 -32 7 -7 10 1 10 22 0 37 -5 41 -14 10z"/>
<path d="M387 133 c-12 -11 -7 -40 8 -53 11 -9 19 -10 26 -3 8 8 6 11 -7 10
-13 -1 -20 6 -22 22 -3 20 0 23 17 18 12 -3 21 -1 21 4 0 10 -33 12 -43 2z"/>
<path d="M442 110 c0 -19 2 -27 5 -17 2 9 2 25 0 35 -3 9 -5 1 -5 -18z"/>
<path d="M466 132 c7 -4 14 -18 16 -32 3 -23 4 -22 9 8 5 27 3 32 -15 32 -13
0 -17 -3 -10 -8z"/>
<path d="M512 113 c-2 -35 13 -52 31 -34 9 9 8 11 -5 6 -13 -5 -17 0 -21 27
l-4 33 -1 -32z"/>
<path d="M583 134 c10 -3 17 -15 17 -31 0 -18 -4 -24 -15 -19 -8 3 -15 1 -15
-5 0 -6 8 -9 18 -7 26 5 24 62 -3 65 -16 1 -16 1 -2 -3z"/>
<path d="M620 105 c0 -30 3 -35 23 -34 16 1 18 2 5 6 -10 2 -18 8 -18 13 0 5
8 11 18 13 16 4 16 5 0 6 -10 0 -18 5 -18 10 0 5 8 12 18 14 13 4 11 5 -5 6
-20 1 -23 -4 -23 -34z"/>
<path d="M230 80 c0 -6 7 -10 15 -10 8 0 15 2 15 4 0 2 -7 6 -15 10 -8 3 -15
1 -15 -4z"/>
</g>
</svg>
