<?xml version="1.0" standalone="no"?>
<!DOCTYPE svg PUBLIC "-//W3C//DTD SVG 20010904//EN"
 "http://www.w3.org/TR/2001/REC-SVG-20010904/DTD/svg10.dtd">
<svg version="1.0" xmlns="http://www.w3.org/2000/svg"
 width="100.000000pt" height="54.000000pt" viewBox="0 0 100.000000 54.000000"
 preserveAspectRatio="xMidYMid meet">
<metadata>
Created by potrace 1.12, written by Peter Selinger 2001-2015
</metadata>
<g transform="translate(0.000000,54.000000) scale(0.100000,-0.100000)"
fill="#000000" stroke="none">
<path d="M30 270 l0 -110 470 0 470 0 0 110 0 110 -470 0 -470 0 0 -110z m930
0 l0 -100 -460 0 -460 0 0 100 0 100 460 0 460 0 0 -100z"/>
<path d="M77 343 c6 -5 13 -22 16 -38 l4 -30 2 33 c1 39 21 43 21 5 0 -21 3
-24 10 -13 7 12 12 12 28 -4 14 -12 22 -14 27 -6 4 6 13 9 21 6 8 -3 14 -2 14
3 0 5 -9 11 -20 14 -14 3 -20 0 -20 -11 0 -8 -3 -12 -7 -8 -5 4 -8 18 -8 29 0
19 -6 22 -50 25 -27 1 -45 -1 -38 -5z m83 -13 c0 -5 -7 -10 -15 -10 -8 0 -15
5 -15 10 0 6 7 10 15 10 8 0 15 -4 15 -10z"/>
<path d="M190 341 c0 -5 5 -13 10 -16 6 -3 10 -2 10 4 0 5 -4 13 -10 16 -5 3
-10 2 -10 -4z"/>
<path d="M230 316 c0 -20 2 -36 4 -36 8 0 12 61 4 66 -4 3 -8 -11 -8 -30z"/>
<path d="M270 329 c0 -11 -4 -17 -10 -14 -6 3 -7 -1 -4 -9 10 -26 24 -18 24
14 0 17 -2 30 -5 30 -3 0 -5 -9 -5 -21z"/>
<path d="M290 335 c0 -9 7 -18 15 -21 8 -4 15 -11 15 -16 0 -6 -8 -7 -17 -3
-15 5 -16 4 -5 -6 10 -11 14 -11 25 0 10 10 9 15 -5 25 -22 16 -23 30 -2 22 8
-3 12 -2 9 4 -10 16 -35 12 -35 -5z"/>
<path d="M343 315 c0 -22 2 -30 4 -17 2 12 2 30 0 40 -3 9 -5 -1 -4 -23z"/>
<path d="M368 343 c6 -2 18 -2 25 0 6 3 1 5 -13 5 -14 0 -19 -2 -12 -5z"/>
<path d="M412 320 c0 -19 2 -27 5 -17 2 9 2 25 0 35 -3 9 -5 1 -5 -18z"/>
<path d="M434 336 c-10 -26 0 -51 21 -51 16 0 20 7 20 30 0 33 -30 49 -41 21z
m36 -21 c0 -16 -6 -25 -15 -25 -9 0 -15 9 -15 25 0 16 6 25 15 25 9 0 15 -9
15 -25z"/>
<path d="M491 315 c1 -40 1 -40 10 -10 5 18 5 33 -1 39 -7 7 -10 -4 -9 -29z"/>
<path d="M572 321 c-7 -19 -10 -37 -7 -39 3 -3 5 0 5 6 0 7 7 12 15 12 8 0 15
-5 15 -12 0 -6 2 -9 6 -6 3 3 -1 21 -9 39 l-13 34 -12 -34z"/>
<path d="M621 318 c-1 -30 3 -38 17 -38 11 0 13 3 5 8 -6 4 -13 21 -16 37 -4
27 -4 27 -6 -7z"/>
<path d="M668 343 c6 -2 18 -2 25 0 6 3 1 5 -13 5 -14 0 -19 -2 -12 -5z"/>
<path d="M713 315 c0 -22 2 -30 4 -17 2 12 2 30 0 40 -3 9 -5 -1 -4 -23z"/>
<path d="M738 343 c6 -2 18 -2 25 0 6 3 1 5 -13 5 -14 0 -19 -2 -12 -5z"/>
<path d="M783 318 c2 -32 27 -47 33 -20 1 7 0 8 -3 2 -9 -19 -22 -10 -27 20
-6 30 -6 30 -3 -2z"/>
<path d="M832 318 c2 -25 8 -33 23 -33 16 0 20 7 20 30 0 24 -5 31 -23 33 -21
3 -23 0 -20 -30z m38 -3 c0 -16 -6 -25 -15 -25 -9 0 -15 9 -15 25 0 16 6 25
15 25 9 0 15 -9 15 -25z"/>
<path d="M890 315 c0 -30 3 -35 23 -34 16 1 18 2 5 6 -10 2 -18 8 -18 13 0 5
8 11 18 13 16 4 16 5 0 6 -10 0 -18 5 -18 10 0 5 8 12 18 14 13 4 11 5 -5 6
-20 1 -23 -4 -23 -34z"/>
<path d="M510 311 c0 -5 5 -13 10 -16 6 -3 10 -2 10 4 0 5 -4 13 -10 16 -5 3
-10 2 -10 -4z"/>
</g>
</svg>
