<?xml version="1.0" standalone="no"?>
<!DOCTYPE svg PUBLIC "-//W3C//DTD SVG 20010904//EN"
 "http://www.w3.org/TR/2001/REC-SVG-20010904/DTD/svg10.dtd">
<svg version="1.0" xmlns="http://www.w3.org/2000/svg"
 width="100.000000pt" height="54.000000pt" viewBox="0 0 100.000000 54.000000"
 preserveAspectRatio="xMidYMid meet">
<metadata>
Created by potrace 1.12, written by Peter Selinger 2001-2015
</metadata>
<g transform="translate(0.000000,54.000000) scale(0.100000,-0.100000)"
fill="#000000" stroke="none">
<path d="M387 265 l-107 -215 220 0 220 0 -107 215 c-59 118 -110 215 -113
215 -3 0 -54 -97 -113 -215z m216 0 c53 -107 97 -197 97 -200 0 -3 -90 -5
-200 -5 -110 0 -200 2 -200 5 0 10 195 395 200 395 3 0 49 -88 103 -195z"/>
</g>
</svg>
