<?xml version="1.0" standalone="no"?>
<!DOCTYPE svg PUBLIC "-//W3C//DTD SVG 20010904//EN"
 "http://www.w3.org/TR/2001/REC-SVG-20010904/DTD/svg10.dtd">
<svg version="1.0" xmlns="http://www.w3.org/2000/svg"
 width="100.000000pt" height="54.000000pt" viewBox="0 0 100.000000 54.000000"
 preserveAspectRatio="xMidYMid meet">
<metadata>
Created by potrace 1.12, written by Peter Selinger 2001-2015
</metadata>
<g transform="translate(0.000000,54.000000) scale(0.100000,-0.100000)"
fill="#000000" stroke="none">
<path d="M303 450 c0 -25 2 -35 4 -22 2 12 2 32 0 45 -2 12 -4 2 -4 -23z"/>
<path d="M211 453 c0 -11 59 -56 65 -51 2 3 -11 17 -31 32 -19 15 -35 23 -34
19z"/>
<path d="M361 427 l-25 -32 32 29 c33 31 37 36 25 35 -5 0 -19 -14 -32 -32z"/>
<path d="M198 363 c12 -2 30 -2 40 0 9 3 -1 5 -23 4 -22 0 -30 -2 -17 -4z"/>
<path d="M378 363 c12 -2 30 -2 40 0 9 3 -1 5 -23 4 -22 0 -30 -2 -17 -4z"/>
<path d="M285 328 c-54 -132 -84 -212 -80 -216 5 -5 24 38 71 157 l28 74 17
-39 c9 -21 31 -74 49 -117 18 -43 34 -76 36 -74 7 7 -90 247 -99 247 -4 0 -14
-15 -22 -32z"/>
<path d="M507 303 c-4 -3 -7 -17 -7 -30 0 -13 -6 -23 -13 -23 -8 0 -22 -9 -32
-20 -10 -11 -13 -20 -8 -20 6 0 13 7 17 15 3 8 12 15 21 15 8 0 15 -7 15 -15
0 -8 3 -15 8 -15 4 0 8 23 10 50 3 50 1 56 -11 43z"/>
<path d="M571 261 c-1 -42 2 -52 11 -43 8 8 8 23 1 54 l-11 43 -1 -54z"/>
<path d="M637 303 c-4 -3 -7 -15 -7 -25 0 -11 -4 -17 -9 -13 -5 3 -13 0 -17
-6 -5 -8 -3 -9 6 -4 10 6 11 1 6 -21 -10 -38 -3 -30 22 29 19 42 18 60 -1 40z"/>
<path d="M671 291 c-8 -14 -7 -22 5 -32 8 -7 13 -21 11 -31 -3 -10 -1 -16 4
-12 12 7 11 41 -1 49 -19 12 -11 38 10 32 11 -3 20 -1 20 4 0 17 -39 9 -49
-10z"/>
<path d="M729 260 c-13 -42 -13 -50 -2 -50 8 0 12 4 8 10 -3 5 1 26 10 46 17
42 18 44 8 44 -5 0 -15 -23 -24 -50z"/>
<path d="M542 168 c-17 -17 -15 -63 2 -78 13 -10 13 -7 3 19 -9 24 -9 36 1 51
14 23 12 26 -6 8z"/>
<path d="M585 170 c3 -5 8 -10 11 -10 2 0 4 5 4 10 0 6 -5 10 -11 10 -5 0 -7
-4 -4 -10z"/>
<path d="M620 130 l0 -50 33 1 c23 1 26 3 10 6 -20 4 -23 11 -23 49 0 24 -4
44 -10 44 -5 0 -10 -22 -10 -50z"/>
<path d="M466 154 c-9 -22 -7 -31 3 -16 7 11 9 11 14 -2 5 -11 1 -16 -13 -16
-11 0 -20 -4 -20 -8 0 -5 10 -8 23 -8 12 1 21 -4 20 -11 -2 -7 3 -13 11 -13
11 0 11 8 -3 45 -17 48 -25 55 -35 29z"/>
<path d="M284 115 c-4 -10 -1 -21 7 -26 20 -12 34 -5 34 17 0 24 -33 31 -41 9z
m30 -16 c-3 -5 -10 -7 -15 -3 -5 3 -7 10 -3 15 3 5 10 7 15 3 5 -3 7 -10 3
-15z"/>
<path d="M588 105 c-3 -14 -1 -25 3 -25 5 0 9 11 9 25 0 14 -2 25 -4 25 -2 0
-6 -11 -8 -25z"/>
</g>
</svg>
