<?xml version="1.0" standalone="no"?>
<!DOCTYPE svg PUBLIC "-//W3C//DTD SVG 20010904//EN"
 "http://www.w3.org/TR/2001/REC-SVG-20010904/DTD/svg10.dtd">
<svg version="1.0" xmlns="http://www.w3.org/2000/svg"
 width="100.000000pt" height="54.000000pt" viewBox="0 0 100.000000 54.000000"
 preserveAspectRatio="xMidYMid meet">
<metadata>
Created by potrace 1.12, written by Peter Selinger 2001-2015
</metadata>
<g transform="translate(0.000000,54.000000) scale(0.100000,-0.100000)"
fill="#000000" stroke="none">
<path d="M502 445 c-2 -68 -3 -70 -33 -84 -18 -8 -36 -26 -42 -42 -11 -27 -14
-28 -87 -32 l-75 -3 76 -2 c74 -2 77 -3 89 -31 6 -16 25 -35 40 -41 28 -12 29
-15 33 -89 l3 -76 2 76 c2 71 4 77 27 87 14 7 34 25 43 42 16 28 21 29 92 33
l75 3 -76 2 c-74 2 -77 3 -89 31 -6 16 -25 35 -40 41 -28 11 -29 16 -33 84
l-3 71 -2 -70z m-2 -120 c0 -33 -2 -35 -35 -35 -41 0 -44 12 -10 45 33 34 45
31 45 -10z m48 15 c32 -30 28 -50 -8 -50 -28 0 -30 3 -30 35 0 40 8 43 38 15z
m-48 -90 c0 -36 -20 -40 -50 -8 -28 30 -25 38 15 38 32 0 35 -2 35 -30z m74
18 c-30 -54 -64 -63 -64 -18 0 28 3 30 36 30 25 0 33 -4 28 -12z"/>
</g>
</svg>
