<?xml version="1.0" standalone="no"?>
<!DOCTYPE svg PUBLIC "-//W3C//DTD SVG 20010904//EN"
 "http://www.w3.org/TR/2001/REC-SVG-20010904/DTD/svg10.dtd">
<svg version="1.0" xmlns="http://www.w3.org/2000/svg"
 width="100.000000pt" height="54.000000pt" viewBox="0 0 100.000000 54.000000"
 preserveAspectRatio="xMidYMid meet">
<metadata>
Created by potrace 1.12, written by Peter Selinger 2001-2015
</metadata>
<g transform="translate(0.000000,54.000000) scale(0.100000,-0.100000)"
fill="#000000" stroke="none">
<path d="M371 408 l2 -43 6 35 6 35 14 -33 c7 -18 16 -30 19 -27 7 6 -30 75
-40 75 -5 0 -7 -19 -7 -42z"/>
<path d="M457 444 c-11 -11 -9 -26 3 -19 6 3 10 -1 10 -9 0 -9 -6 -13 -14 -10
-8 3 -16 -3 -19 -15 -4 -17 -2 -18 14 -8 16 10 21 9 29 -3 9 -13 10 -13 9 0 0
25 -24 72 -32 64z"/>
<path d="M500 408 c0 -49 5 -47 14 5 4 23 3 37 -4 37 -5 0 -10 -19 -10 -42z"/>
<path d="M545 431 c-3 -10 -1 -29 4 -42 9 -21 10 -19 10 19 1 45 -4 54 -14 23z"/>
<path d="M580 410 c0 -35 3 -40 23 -39 16 1 18 2 5 6 -10 2 -18 11 -18 18 0 7
8 16 18 18 16 4 16 5 0 6 -10 0 -18 5 -18 10 0 5 8 12 18 14 13 4 11 5 -5 6
-20 1 -23 -4 -23 -39z"/>
<path d="M142 243 l3 -178 355 0 355 0 3 178 2 177 -65 0 c-42 0 -64 -4 -60
-10 3 -5 28 -10 56 -10 l49 0 0 -160 0 -160 -340 0 -340 0 0 160 0 160 54 0
c30 0 58 5 61 10 4 6 -20 10 -65 10 l-70 0 2 -177z"/>
<path d="M520 396 c0 -8 5 -18 10 -21 6 -3 10 1 10 9 0 8 -4 18 -10 21 -5 3
-10 -1 -10 -9z"/>
<path d="M172 283 c-2 -41 -1 -43 28 -43 17 0 30 5 30 11 0 6 9 9 20 6 11 -3
20 -1 20 4 0 5 -7 9 -15 9 -8 0 -15 8 -15 18 0 14 2 15 10 2 5 -8 10 -10 10
-5 0 6 -4 16 -9 24 -6 10 -12 4 -21 -23 -16 -51 -47 -50 -53 2 l-4 37 -1 -42z"/>
<path d="M287 312 c6 -4 13 -23 16 -42 l4 -35 1 37 c1 20 8 39 15 41 6 3 -1 6
-18 6 -17 0 -25 -3 -18 -7z"/>
<path d="M343 280 c0 -25 2 -35 4 -22 2 12 2 32 0 45 -2 12 -4 2 -4 -23z"/>
<path d="M367 312 c6 -4 13 -23 16 -42 l4 -35 1 37 c1 20 8 39 15 41 6 3 -1 6
-18 6 -17 0 -25 -3 -18 -7z"/>
<path d="M424 280 c1 -28 5 -36 24 -38 20 -3 22 1 20 35 -1 37 -1 37 -5 6 -3
-19 -10 -33 -18 -33 -8 0 -15 14 -18 33 -4 32 -4 32 -3 -3z"/>
<path d="M490 280 c0 -37 2 -41 23 -38 18 2 22 9 22 38 0 29 -4 36 -22 38 -21
3 -23 -1 -23 -38z m38 -3 c2 -19 -1 -27 -12 -27 -11 0 -16 10 -16 31 0 38 24
35 28 -4z"/>
<path d="M557 313 c-4 -3 -7 -21 -7 -40 0 -30 3 -33 28 -32 23 2 24 2 5 6 -13
2 -23 9 -23 14 0 5 10 9 23 10 l22 0 -22 9 c-13 5 -23 14 -23 19 0 5 10 12 23
14 20 4 20 4 1 6 -11 0 -24 -2 -27 -6z"/>
<path d="M172 153 c-2 -39 0 -43 21 -42 16 1 17 3 5 6 -11 3 -18 17 -21 41
l-4 37 -1 -42z"/>
<path d="M230 175 c-19 -23 -4 -67 22 -63 12 2 23 10 25 18 4 12 3 13 -5 1
-13 -19 -42 -6 -42 18 0 26 17 36 35 21 9 -7 15 -8 15 -2 0 5 -7 13 -16 16
-21 8 -20 8 -34 -9z"/>
<path d="M370 176 c-20 -26 -8 -61 23 -64 22 -3 27 1 27 17 0 14 -6 21 -17 20
-11 0 -13 -3 -5 -6 19 -8 14 -23 -8 -23 -15 0 -20 7 -20 24 0 30 16 42 35 26
9 -7 15 -8 15 -2 0 5 -7 13 -16 16 -21 8 -20 8 -34 -8z"/>
<path d="M469 148 l6 -43 3 35 c2 19 9 38 15 42 8 5 4 8 -8 8 -18 0 -20 -5
-16 -42z"/>
<path d="M580 149 c0 -36 2 -40 22 -37 12 2 23 9 24 16 1 7 0 8 -3 2 -11 -22
-33 -9 -33 20 0 33 14 39 29 13 9 -16 10 -16 11 -2 0 16 -19 29 -41 29 -5 0
-9 -18 -9 -41z"/>
<path d="M650 181 c0 -5 9 -7 20 -4 11 3 20 7 20 9 0 2 -9 4 -20 4 -11 0 -20
-4 -20 -9z"/>
<path d="M291 143 c1 -37 1 -38 8 -8 l8 30 13 -27 c18 -39 30 -35 29 10 -1 35
-2 35 -8 8 l-6 -29 -14 26 c-20 38 -31 34 -30 -10z"/>
<path d="M433 145 c0 -22 2 -30 4 -17 2 12 2 30 0 40 -3 9 -5 -1 -4 -23z"/>
<path d="M513 148 c1 -26 7 -34 25 -36 12 -2 22 1 22 6 0 6 -9 8 -19 5 -16 -4
-21 2 -25 26 l-6 31 3 -32z"/>
<path d="M650 149 c0 -5 9 -9 20 -9 11 0 20 2 20 4 0 2 -9 6 -20 9 -11 3 -20
1 -20 -4z"/>
<path d="M658 113 c6 -2 18 -2 25 0 6 3 1 5 -13 5 -14 0 -19 -2 -12 -5z"/>
</g>
</svg>
