<?xml version="1.0" standalone="no"?>
<!DOCTYPE svg PUBLIC "-//W3C//DTD SVG 20010904//EN"
 "http://www.w3.org/TR/2001/REC-SVG-20010904/DTD/svg10.dtd">
<svg version="1.0" xmlns="http://www.w3.org/2000/svg"
 width="100.000000pt" height="54.000000pt" viewBox="0 0 100.000000 54.000000"
 preserveAspectRatio="xMidYMid meet">
<metadata>
Created by potrace 1.12, written by Peter Selinger 2001-2015
</metadata>
<g transform="translate(0.000000,54.000000) scale(0.100000,-0.100000)"
fill="#000000" stroke="none">
<path d="M311 388 c-33 -57 -61 -110 -61 -118 0 -8 28 -61 61 -118 l60 -102
129 0 129 0 60 102 c33 57 61 110 61 118 0 8 -28 61 -61 118 l-60 102 -129 0
-129 0 -60 -102z m364 -18 l56 -100 -56 -100 -57 -100 -118 0 -118 0 -57 100
-56 100 56 100 57 100 118 0 118 0 57 -100z"/>
<path d="M474 286 c-10 -26 4 -48 28 -44 17 2 23 10 23 28 0 18 -6 26 -23 28
-13 2 -25 -3 -28 -12z"/>
</g>
</svg>
