<?xml version="1.0" standalone="no"?>
<!DOCTYPE svg PUBLIC "-//W3C//DTD SVG 20010904//EN"
 "http://www.w3.org/TR/2001/REC-SVG-20010904/DTD/svg10.dtd">
<svg version="1.0" xmlns="http://www.w3.org/2000/svg"
 width="100.000000pt" height="54.000000pt" viewBox="0 0 100.000000 54.000000"
 preserveAspectRatio="xMidYMid meet">
<metadata>
Created by potrace 1.12, written by Peter Selinger 2001-2015
</metadata>
<g transform="translate(0.000000,54.000000) scale(0.100000,-0.100000)"
fill="#000000" stroke="none">
<path d="M390 415 c1 -26 2 -28 11 -12 8 14 8 22 0 30 -8 8 -11 3 -11 -18z"/>
<path d="M421 433 c-1 -6 -4 -20 -7 -30 -5 -17 -5 -17 6 0 6 10 9 23 6 30 -3
9 -5 9 -5 0z"/>
<path d="M478 412 l6 -27 7 25 7 25 1 -25 c1 -18 4 -21 10 -11 6 9 11 10 15 2
4 -6 17 -11 29 -11 16 0 18 3 8 9 -11 7 -11 9 0 14 11 4 11 6 -1 6 -12 1 -12
3 -2 10 9 5 -4 9 -36 9 -48 2 -49 1 -44 -26z m57 7 c11 -16 1 -19 -13 -3 -7 8
-8 14 -3 14 5 0 13 -5 16 -11z"/>
<path d="M589 412 c9 -7 10 -11 2 -15 -7 -4 -8 -5 0 -4 15 3 13 21 -3 25 -10
3 -10 2 1 -6z"/>
<path d="M448 393 c7 -3 16 -2 19 1 4 3 -2 6 -13 5 -11 0 -14 -3 -6 -6z"/>
<path d="M41 278 c-1 -13 7 -18 28 -18 16 0 32 -6 34 -12 4 -10 6 -10 6 0 1 7
17 12 45 12 26 0 46 -5 49 -12 4 -10 6 -10 6 0 1 7 17 12 45 12 26 0 46 -5 49
-12 4 -10 6 -10 6 0 1 17 187 17 194 0 4 -10 6 -10 6 0 1 9 27 12 95 12 66 0
96 -4 99 -12 4 -10 6 -10 6 0 1 17 187 17 194 -1 4 -9 6 -9 6 1 1 6 12 12 25
12 26 0 43 16 31 28 -4 4 -10 1 -12 -5 -7 -18 -309 -18 -316 0 -4 10 -6 10 -6
0 -1 -10 -40 -13 -160 -13 -118 0 -161 3 -164 13 -4 10 -6 10 -6 0 -1 -7 -14
-13 -30 -13 -16 0 -32 6 -34 13 -4 10 -6 10 -6 0 -1 -17 -48 -17 -54 0 -4 10
-6 10 -6 0 -1 -7 -14 -13 -30 -13 -16 0 -32 6 -34 13 -4 10 -6 10 -6 0 -1 -7
-12 -13 -25 -13 -13 0 -27 6 -29 13 -3 7 -6 5 -6 -5z"/>
<path d="M440 123 c0 -30 9 -27 15 6 2 11 0 21 -6 21 -5 0 -9 -12 -9 -27z"/>
<path d="M470 125 c0 -17 5 -25 18 -25 14 0 15 2 2 10 -13 9 -13 10 0 10 12 0
13 2 1 9 -11 7 -11 9 0 14 10 4 9 6 -3 6 -13 1 -18 -7 -18 -24z"/>
<path d="M548 125 c2 -14 6 -25 7 -25 1 0 5 11 7 25 3 16 1 25 -7 25 -8 0 -10
-9 -7 -25z"/>
</g>
</svg>
