<?xml version="1.0" standalone="no"?>
<!DOCTYPE svg PUBLIC "-//W3C//DTD SVG 20010904//EN"
 "http://www.w3.org/TR/2001/REC-SVG-20010904/DTD/svg10.dtd">
<svg version="1.0" xmlns="http://www.w3.org/2000/svg"
 width="100.000000pt" height="54.000000pt" viewBox="0 0 100.000000 54.000000"
 preserveAspectRatio="xMidYMid meet">
<metadata>
Created by potrace 1.12, written by Peter Selinger 2001-2015
</metadata>
<g transform="translate(0.000000,54.000000) scale(0.100000,-0.100000)"
fill="#000000" stroke="none">
<path d="M376 472 c-2 -4 18 -46 45 -92 27 -47 49 -88 49 -92 0 -5 -47 -8
-105 -8 -63 0 -105 -4 -105 -10 0 -6 42 -10 105 -10 58 0 105 -3 105 -8 0 -4
-22 -45 -49 -92 -31 -53 -46 -89 -41 -94 12 -12 8 -17 65 82 25 45 50 82 55
82 5 0 30 -37 55 -83 57 -98 53 -93 65 -81 5 5 -10 41 -41 94 -27 47 -49 88
-49 92 0 5 47 8 105 8 63 0 105 4 105 10 0 6 -42 10 -105 10 -58 0 -105 3
-105 8 0 4 22 45 49 92 31 53 46 89 41 94 -12 12 -8 17 -65 -81 -25 -46 -51
-83 -55 -83 -5 0 -30 38 -57 85 -47 82 -56 94 -67 77z"/>
</g>
</svg>
