<?xml version="1.0" standalone="no"?>
<!DOCTYPE svg PUBLIC "-//W3C//DTD SVG 20010904//EN"
 "http://www.w3.org/TR/2001/REC-SVG-20010904/DTD/svg10.dtd">
<svg version="1.0" xmlns="http://www.w3.org/2000/svg"
 width="100.000000pt" height="54.000000pt" viewBox="0 0 100.000000 54.000000"
 preserveAspectRatio="xMidYMid meet">
<metadata>
Created by potrace 1.12, written by Peter Selinger 2001-2015
</metadata>
<g transform="translate(0.000000,54.000000) scale(0.100000,-0.100000)"
fill="#000000" stroke="none">
<path d="M511 484 c-7 -21 -15 -45 -18 -53 -4 -10 -1 -12 11 -8 16 6 17 -8 15
-188 -1 -107 1 -198 4 -202 4 -3 7 84 7 195 0 181 2 201 16 195 17 -6 15 7
-10 71 l-12 29 -13 -39z"/>
<path d="M431 439 c-1 -9 -4 -32 -8 -50 -6 -31 -5 -33 10 -20 15 12 17 11 18
-10 1 -13 3 -17 5 -9 3 8 -2 35 -10 60 -8 25 -14 38 -15 29z"/>
<path d="M462 315 c0 -11 4 -31 8 -45 6 -20 8 -21 8 -5 0 11 -4 31 -8 45 -6
20 -8 21 -8 5z"/>
<path d="M394 288 l-19 -23 25 20 c14 11 27 21 29 22 2 2 0 3 -6 3 -5 0 -18
-10 -29 -22z"/>
<path d="M369 257 c5 -5 19 -7 32 -5 20 3 19 5 -9 9 -20 3 -29 2 -23 -4z"/>
<path d="M481 224 c0 -11 3 -14 6 -6 3 7 2 16 -1 19 -3 4 -6 -2 -5 -13z"/>
<path d="M383 215 c10 -10 16 -26 14 -37 -5 -17 -3 -17 24 3 35 25 37 39 5 39
-13 0 -33 3 -43 7 -17 7 -17 6 0 -12z m49 -17 c-9 -9 -15 -9 -24 0 -9 9 -7 12
12 12 19 0 21 -3 12 -12z"/>
<path d="M492 180 c0 -14 2 -19 5 -12 2 6 2 18 0 25 -3 6 -5 1 -5 -13z"/>
<path d="M423 159 c-18 -5 -33 -12 -33 -15 0 -3 9 -2 20 1 25 8 26 -11 3 -39
-18 -21 -18 -21 4 -3 14 13 23 15 28 7 12 -19 33 8 27 35 -2 14 -7 25 -11 24
-3 0 -21 -5 -38 -10z m39 -43 c-2 -5 -9 -1 -14 8 -5 9 -6 21 -2 28 9 14 25
-22 16 -36z"/>
<path d="M501 134 c0 -11 3 -14 6 -6 3 7 2 16 -1 19 -3 4 -6 -2 -5 -13z"/>
</g>
</svg>
