<?xml version="1.0" standalone="no"?>
<!DOCTYPE svg PUBLIC "-//W3C//DTD SVG 20010904//EN"
 "http://www.w3.org/TR/2001/REC-SVG-20010904/DTD/svg10.dtd">
<svg version="1.0" xmlns="http://www.w3.org/2000/svg"
 width="100.000000pt" height="54.000000pt" viewBox="0 0 100.000000 54.000000"
 preserveAspectRatio="xMidYMid meet">
<metadata>
Created by potrace 1.12, written by Peter Selinger 2001-2015
</metadata>
<g transform="translate(0.000000,54.000000) scale(0.100000,-0.100000)"
fill="#000000" stroke="none">
<path d="M280 270 l0 -220 220 0 220 0 0 220 0 220 -220 0 -220 0 0 -220z
m426 197 c3 -8 4 -52 2 -98 l-3 -84 -45 88 -44 87 -116 0 -115 0 -45 -88 -45
-87 -3 84 c-2 46 -1 90 2 98 8 19 404 19 412 0z m-57 -109 l46 -88 -46 -87
-46 -88 -104 0 -104 0 -45 87 -45 87 33 68 c60 122 48 114 164 111 l101 -3 46
-87z m-294 -218 l29 -60 116 0 116 0 44 88 45 87 3 -84 c2 -46 1 -90 -2 -98
-5 -11 -45 -13 -208 -11 l-203 3 -3 95 c-2 95 -2 95 16 68 10 -15 31 -55 47
-88z"/>
<path d="M480 284 c-11 -12 -10 -18 3 -32 16 -15 18 -15 34 0 13 14 14 20 3
32 -7 9 -16 16 -20 16 -4 0 -13 -7 -20 -16z"/>
</g>
</svg>
